<svg width="20" height="20" viewBox="0 0 20 20" fill="none" xmlns="http://www.w3.org/2000/svg">
<g id="015-australia">
<path id="Vector" d="M9.99951 0V20C15.5226 20 19.9997 15.5229 19.9997 10.0001C19.9997 4.47681 15.5225 0 9.99951 0Z" fill="#252F6B"/>
<path id="Vector_2" d="M9.99985 0C4.47714 0 0 4.47697 0 9.99998C0 15.5227 4.47714 19.9998 9.99985 19.9998C15.5229 19.9998 15.5229 0 9.99985 0Z" fill="#273375"/>
<g id="Group">
<path id="Vector_3" d="M6.85814 15.3294L7.53248 14.4887L6.49072 14.6774L6.12929 13.6683L5.73645 14.6774L4.67286 14.4887L5.3488 15.3109L4.64697 16.1321L5.71669 15.9641L6.07748 16.9524L6.47049 15.9646L7.56153 16.1596L6.85814 15.3294Z" fill="#F3F4F5"/>
<path id="Vector_4" d="M14.8289 16.0719L15.2113 15.5955L14.6208 15.7024L14.416 15.1306L14.1934 15.7024L13.5907 15.5955L13.9737 16.0611L13.5762 16.5267L14.1822 16.4314L14.3866 16.9912L14.6093 16.4317L15.2276 16.5422L14.8289 16.0719Z" fill="#F3F4F5"/>
<path id="Vector_5" d="M14.8289 5.54551L15.2113 5.06898L14.6208 5.17602L14.416 4.60428L14.1934 5.17602L13.5907 5.06898L13.9737 5.53491L13.5762 6.00025L14.1822 5.90504L14.3866 6.46508L14.6093 5.90533L15.2276 6.0157L14.8289 5.54551Z" fill="#F3F4F5"/>
<path id="Vector_6" d="M17.3029 8.26852L17.685 7.79199L17.0948 7.89907L16.89 7.32733L16.6674 7.89907L16.0643 7.79199L16.4474 8.25797L16.0498 8.72343L16.6558 8.62805L16.8603 9.18814L17.0829 8.62839L17.7012 8.73876L17.3029 8.26852Z" fill="#F3F4F5"/>
<path id="Vector_7" d="M12.6891 9.47915L13.0716 9.00275L12.481 9.10983L12.2762 8.53809L12.0536 9.10983L11.451 9.00275L11.834 9.46838L11.4365 9.93402L12.0425 9.83881L12.247 10.3984L12.4696 9.83914L13.088 9.94951L12.6891 9.47915Z" fill="#F3F4F5"/>
</g>
<g id="Group_2">
<path id="Vector_8" d="M2.10026 3.87238C1.94332 4.07462 1.79347 4.28228 1.65186 4.49622H2.72381L2.10026 3.87238Z" fill="#29337A"/>
<path id="Vector_9" d="M7.26416 10H8.22747L7.26416 9.03668V10Z" fill="#29337A"/>
<path id="Vector_10" d="M4.07099 1.948C3.84155 2.11727 3.62068 2.2968 3.40674 2.48452L4.07099 3.14848V1.948Z" fill="#29337A"/>
<path id="Vector_11" d="M3.10742 9.99996H4.07103V9.03635L3.10742 9.99996Z" fill="#29337A"/>
<path id="Vector_12" d="M9.99986 0C9.0509 0 8.13416 0.134986 7.26416 0.382117V3.14843L10.0002 0.41256V0H9.99986Z" fill="#29337A"/>
<path id="Vector_13" d="M10.0002 9.07801V7.68964H8.61182L10.0002 9.07801Z" fill="#29337A"/>
<path id="Vector_14" d="M0.412602 9.99994L2.72337 7.68964H0.271409C0.095677 8.43158 0 9.20447 0 9.99994H0.412602Z" fill="#29337A"/>
<path id="Vector_15" d="M8.61084 4.49631H10.0001V3.1073L8.61084 4.49631Z" fill="#29337A"/>
</g>
<g id="Group_3">
<path id="Vector_16" d="M9.99998 9.36979V9.07816L8.6116 7.68978H9.99998V7.19257H7.82275L9.99998 9.36979Z" fill="white"/>
<path id="Vector_17" d="M2.72318 4.49633H1.65122C1.54419 4.65851 1.44247 4.82445 1.34473 4.99309H3.45059L2.20067 3.7435C2.16643 3.78614 2.13277 3.82925 2.09946 3.87232L2.72318 4.49633Z" fill="white"/>
<path id="Vector_18" d="M4.07044 9.03632V9.99993H4.56736V8.3089L2.87646 9.99993H3.10683L4.07044 9.03632Z" fill="white"/>
<path id="Vector_19" d="M7.26335 0.381989C7.09581 0.429531 6.93034 0.481297 6.7666 0.537031V3.87589L9.99935 0.643306V0.412938L7.26335 3.1483V0.381989Z" fill="white"/>
<path id="Vector_20" d="M4.05307 7.68967L4.07059 7.67215L4.55011 7.19263H0.402056C0.354217 7.35666 0.310474 7.5223 0.270996 7.68967H2.72296L0.412189 9.99998H1.74263L4.05307 7.68967Z" fill="white"/>
<path id="Vector_21" d="M0.412109 9.99998L2.72288 7.68967L0.412109 9.99998Z" fill="white"/>
<path id="Vector_22" d="M9.99936 4.99319V4.49627H8.61006L9.99936 3.10727V1.77716L6.7832 4.99319H9.99936Z" fill="white"/>
<path id="Vector_23" d="M9.9997 3.10727L8.61035 4.49627L9.9997 3.10727Z" fill="white"/>
<path id="Vector_24" d="M4.07066 3.14866L3.40641 2.48471C3.17085 2.69173 2.9447 2.9096 2.72949 3.13794L4.07066 4.47911L4.08489 4.49363L4.56758 4.97632V1.60571C4.39865 1.71545 4.23237 1.82865 4.07083 1.94801V3.14866H4.07066Z" fill="white"/>
<path id="Vector_25" d="M7.26352 9.03676L8.22684 10.0001H9.49601L6.7666 7.27087V10.0001H7.26352V9.03676Z" fill="white"/>
</g>
<g id="Group_4">
<path id="Vector_26" d="M4.0708 4.479L4.08503 4.49353L4.0708 4.479Z" fill="#D32030"/>
<path id="Vector_27" d="M8.31956 7.68962L7.8228 7.19257H10V4.9931H6.78387L6.76727 5.00999V4.9931H6.78387L10 1.77724V0.643215L6.76711 3.87597V0.537109C5.98569 0.804127 5.24831 1.16441 4.56763 1.60573V4.97617L4.58486 4.99306H4.56763V4.97617L4.08494 4.49352L4.08777 4.49635H4.07088V4.47912L2.72971 3.13795C2.54562 3.33281 2.36925 3.5346 2.20108 3.74364L3.45096 4.99323H1.34514C0.94723 5.67914 0.629081 6.41618 0.402344 7.1927H4.5504L4.56763 7.17518V7.1927H4.5504L4.07088 7.67227V7.68979H4.05336L1.74288 9.99997H2.8769L4.5678 8.3089V9.99997H6.76727V7.27073L9.49652 9.99997H9.87184C9.91461 9.9553 9.95823 9.91092 10.0002 9.86498V9.36963L8.31956 7.68962Z" fill="#D32030"/>
<path id="Vector_28" d="M6.76709 3.87594L10 0.643188L6.76709 3.87594Z" fill="#D32030"/>
<path id="Vector_29" d="M4.07074 7.68966V7.67197L4.05322 7.68966H4.07074Z" fill="#D32030"/>
<path id="Vector_30" d="M4.56765 7.17487L4.55029 7.19239H4.56765V7.17487Z" fill="#D32030"/>
<path id="Vector_31" d="M6.76709 5.00996L6.78385 4.99307H6.76709V5.00996Z" fill="#D32030"/>
<path id="Vector_32" d="M4.0708 4.49619H4.08786L4.08503 4.49353L4.0708 4.479V4.49619Z" fill="#D32030"/>
<path id="Vector_33" d="M4.58506 4.99316L4.56787 4.9761V4.99316H4.58506Z" fill="#D32030"/>
</g>
</g>
</svg>
