<svg width="20" height="20" viewBox="0 0 20 20" fill="none" xmlns="http://www.w3.org/2000/svg">
<g id="103-canada" clip-path="url(#clip0_258_4577)">
<path id="Vector" d="M10.0005 20.0002C15.5231 20.0002 20.0001 15.5232 20.0001 10.0006C20.0001 4.47802 15.5231 0.00106812 10.0005 0.00106812C4.47793 0.00106812 0.000976562 4.47802 0.000976562 10.0006C0.000976562 15.5232 4.47793 20.0002 10.0005 20.0002Z" fill="white"/>
<path id="Vector_2" d="M0 10.0001C0 13.7588 2.0749 17.0315 5.14055 18.7397V1.26007C2.0749 2.96848 0 6.24098 0 10.0001Z" fill="#D32027"/>
<path id="Vector_3" d="M9.9998 19.9998C9.8847 19.9998 9.77399 19.9959 9.66113 19.994C9.77332 19.9977 9.88618 19.9998 9.9998 19.9998Z" fill="white"/>
<path id="Vector_4" d="M9.99972 0C9.99655 0 9.99389 0.00016889 9.99072 0.00016889C9.9938 0.00016889 9.99663 0 9.99972 0C15.5227 0 15.5227 20 9.99972 20C11.7606 20 13.4139 19.5432 14.851 18.7443V1.25557C13.4138 0.456636 11.7605 0 9.99972 0Z" fill="#E7E7E7"/>
<path id="Vector_5" d="M14.8511 1.25565V18.7442C17.9213 17.0372 19.9999 13.762 19.9999 10.0001C19.9999 6.23786 17.9214 2.96266 14.8511 1.25565Z" fill="#B52025"/>
<path id="Vector_6" d="M9.99948 0C9.99632 0 9.99366 0 9.99049 0C8.22998 0.00156223 6.57667 0.459803 5.14014 1.26V18.7395C6.48649 19.4897 8.0236 19.9394 9.66082 19.9938C9.77372 19.9957 9.88438 19.9997 9.99948 19.9997C15.5224 19.9998 15.5224 0 9.99948 0Z" fill="#F3F1F2"/>
<path id="Vector_7" d="M13.8808 9.81926C13.7433 9.6879 13.4611 9.70243 13.4108 9.48405C13.3441 8.9477 13.5909 8.63538 13.7466 8.27696C12.9587 8.46121 12.3375 8.76454 12.3382 7.87466C11.8858 8.42777 11.3995 8.98085 11.1986 8.88044C10.9133 8.71278 11.4724 7.2892 11.5335 6.5338C11.2575 6.65979 10.7289 6.9361 10.7289 6.9361C10.7289 6.9361 10.2484 5.99631 9.99407 5.53275V5.52768C9.99314 5.52861 9.99314 5.52941 9.9928 5.53021C9.99217 5.52958 9.99217 5.52865 9.99154 5.52768V5.53275C9.73685 5.99631 9.2567 6.9361 9.2567 6.9361C9.2567 6.9361 8.72773 6.65979 8.45206 6.5338C8.51286 7.28933 9.07197 8.7129 8.78663 8.88044C8.58565 8.98102 8.09946 8.42777 7.64743 7.87466C7.64743 8.76454 7.02659 8.46126 6.23901 8.27696C6.39439 8.63521 6.64118 8.94753 6.57392 9.48405C6.52435 9.70243 6.24201 9.6879 6.10449 9.81926C7.01852 10.733 8.60271 11.4116 7.84811 12.166L9.88256 11.9762C9.94919 12.6637 9.73398 13.5074 9.92077 13.9767C9.96451 13.9767 9.95016 13.9767 9.99137 13.9767C9.992 13.9767 9.99293 13.9767 9.9939 13.9767C10.0349 13.9767 10.0198 13.9767 10.0632 13.9767C10.2538 13.4904 10.0361 12.6638 10.1027 11.9762L12.1369 12.166C11.383 11.4116 12.9671 10.733 13.8808 9.81926Z" fill="#D32027"/>
</g>
<defs>
<clipPath id="clip0_258_4577">
<rect width="20" height="20" fill="white"/>
</clipPath>
</defs>
</svg>
