<svg width="20" height="20" viewBox="0 0 20 20" fill="none" xmlns="http://www.w3.org/2000/svg">
<g id="065-france" clip-path="url(#clip0_258_4585)">
<path id="Vector" d="M13.3335 0.571503L12.1665 3.80708C13.2437 7.36189 13.2437 12.6381 12.1665 16.1931L13.3335 19.4283C17.2169 18.0551 19.9996 14.3534 19.9996 9.99969C19.9996 5.64662 17.2169 1.94474 13.3335 0.571503Z" fill="#E61E25"/>
<g id="Group">
<path id="Vector_2" d="M13.334 3.80709V0.571516C12.2911 0.202704 11.1694 0.00012207 10 0.00012207C11.542 0.00012207 9.40395 5.2261 13.334 3.80709Z" fill="#E4E4E4"/>
<path id="Vector_3" d="M10.0002 19.9999C11.1695 19.9999 12.2913 19.7974 13.3341 19.4285V16.1933C9.44363 15.805 10.0002 19.9999 10.0002 19.9999Z" fill="#E4E4E4"/>
</g>
<path id="Vector_4" d="M0 9.99979C0 14.3681 2.80166 18.0796 6.70515 19.4417V0.558563C2.80166 1.92069 0 5.63216 0 9.99979Z" fill="#3757A6"/>
<path id="Vector_5" d="M13.334 3.80707V16.1931C14.4113 12.6381 14.4113 7.36184 13.334 3.80707Z" fill="#EF4F4E"/>
<path id="Vector_6" d="M13.3338 16.1932V3.80709C12.653 1.55964 11.5418 0.00012207 9.99985 0.00012207C8.84503 0.00012207 7.73707 0.19844 6.70508 0.558596V19.4418C7.73707 19.802 8.84503 20 9.99985 20C11.5418 20 12.653 18.4404 13.3338 16.1932Z" fill="#F3F4F5"/>
</g>
<defs>
<clipPath id="clip0_258_4585">
<rect width="20" height="20" fill="white"/>
</clipPath>
</defs>
</svg>
