<svg width="20" height="20" viewBox="0 0 20 20" fill="none" xmlns="http://www.w3.org/2000/svg">
<g id="048-germany" clip-path="url(#clip0_258_4531)">
<path id="Vector" d="M10.0015 20.0006C15.5241 20.0006 20.0011 15.5237 20.0011 10.0011C20.0011 4.47846 15.5241 0.00149536 10.0015 0.00149536C4.47892 0.00149536 0.00195312 4.47846 0.00195312 10.0011C0.00195312 15.5237 4.47892 20.0006 10.0015 20.0006Z" fill="white"/>
<path id="Vector_2" d="M19.4283 6.66583H13.2671C13.5346 8.802 13.5363 11.1557 13.2722 13.2946H19.4416C19.8015 12.2627 19.9997 11.1546 19.9997 10.0001C19.9999 8.83037 19.7971 7.70869 19.4283 6.66583Z" fill="#D32027"/>
<path id="Vector_3" d="M13.2667 6.66589H19.4279C19.4268 6.66272 19.4258 6.66006 19.4247 6.65719C18.1448 3.04851 14.8529 0.393509 10.8975 0.0410767C12.4281 0.880124 12.8751 3.53846 13.2667 6.66589Z" fill="#0B0B0B"/>
<path id="Vector_4" d="M10.8979 19.9586C14.8605 19.6055 18.1572 16.9413 19.432 13.323C19.4353 13.3134 19.4381 13.3039 19.4416 13.2946H13.272C12.8838 16.4389 12.4349 19.1161 10.8979 19.9586Z" fill="#F3C515"/>
<path id="Vector_5" d="M0 10C0 11.1547 0.198151 12.2627 0.558141 13.2945H13.787C14.0512 11.1555 14.0494 8.80194 13.782 6.66577H0.571441C0.202584 7.70867 0 8.83035 0 10Z" fill="#DB2727"/>
<path id="Vector_6" d="M0.573967 6.65715C0.57287 6.65998 0.571899 6.66268 0.570801 6.66585H13.7815C13.39 3.53842 12.428 0.88013 10.8976 0.0410826C10.6015 0.0148624 10.3021 0 9.99932 0C5.64917 0 1.94954 2.77833 0.573967 6.65715Z" fill="#151515"/>
<path id="Vector_7" d="M13.787 13.2946H0.558105C0.561441 13.3039 0.564439 13.3134 0.567732 13.323C1.93794 17.2118 5.64247 19.9999 9.99971 19.9999C10.3026 19.9999 10.6019 19.985 10.898 19.9585C12.4349 19.1161 13.3987 16.4389 13.787 13.2946Z" fill="#F8D12E"/>
</g>
<defs>
<clipPath id="clip0_258_4531">
<rect width="20" height="20" fill="white"/>
</clipPath>
</defs>
</svg>
