<svg width="20" height="20" viewBox="0 0 20 20" fill="none" xmlns="http://www.w3.org/2000/svg">
<g id="Google">
<g id="Group">
<path id="Vector" d="M19.825 8.13333H15.6417H10.2167V12.0917H15.5667C15.0833 13.375 14.175 14.45 13 15.1333C12.1167 15.65 11.0917 15.95 10 15.95C7.45 15.95 5.275 14.3417 4.43333 12.0917C4.19167 11.4417 4.05833 10.7417 4.05833 10.0083C4.05833 9.33333 4.175 8.68333 4.38333 8.075C5.175 5.73333 7.39167 4.05833 10 4.05833C11.1583 4.05833 12.2333 4.38333 13.1417 4.95833L16.3833 2.30833C14.65 0.866667 12.425 0 10 0C6.13333 0 2.78333 2.19167 1.11667 5.4C0.4 6.775 0 8.34167 0 10C0 11.7167 0.433333 13.325 1.19167 14.7417C2.88333 17.875 6.19167 20 10 20C12.3667 20 14.55 19.175 16.2583 17.8C18.0167 16.3833 19.2917 14.3833 19.7833 12.0917C19.925 11.4167 20 10.7167 20 10C20 9.35833 19.9417 8.73333 19.825 8.13333Z" fill="#FBBB00"/>
<path id="Vector_2" d="M16.2586 17.8C14.5502 19.175 12.3669 20 10.0002 20C6.19189 20 2.88356 17.875 1.19189 14.7417L4.43356 12.0917C5.27523 14.3417 7.45023 15.95 10.0002 15.95C11.0919 15.95 12.1252 15.65 13.0002 15.1333L16.2586 17.8Z" fill="#28B446"/>
<path id="Vector_3" d="M19.8251 8.13333C19.9418 8.73333 20.0001 9.35833 20.0001 10C20.0001 10.7167 19.9251 11.4167 19.7835 12.0917C19.3001 14.3833 18.0251 16.3833 16.2585 17.8L13.0001 15.1333C14.1668 14.45 15.0835 13.375 15.5668 12.0917H10.2168V8.13333H15.6418H19.8251Z" fill="#518EF8"/>
<path id="Vector_4" d="M16.3834 2.3L13.1417 4.95C12.2334 4.38333 11.1584 4.05833 10 4.05833C7.3917 4.05833 5.17503 5.73333 4.37503 8.075L1.1167 5.40833C2.78337 2.19167 6.13337 0 10 0C12.425 0 14.65 0.866667 16.3834 2.3Z" fill="#FC3F1D"/>
</g>
</g>
</svg>
