<svg width="32" height="20" viewBox="0 0 32 20" fill="none" xmlns="http://www.w3.org/2000/svg">
<g id="Mastercard" clip-path="url(#clip0_258_3700)">
<path id="Vector" d="M20.3263 17.8616H11.6738V2.13843H20.3263V17.8616Z" fill="#FF5F00"/>
<path id="Vector_2" d="M12.2222 9.9988C12.2222 6.80999 13.7003 3.96896 15.9988 2.13603C14.2581 0.749593 12.106 -0.00237493 9.88888 -2.50267e-05C4.42734 -2.50267e-05 0 4.47653 0 9.9988C0 15.5211 4.42734 19.9976 9.88888 19.9976C12.106 20 14.2581 19.248 16.0012 17.8592C13.7003 16.031 12.2222 13.19 12.2222 9.9988Z" fill="#EB001B"/>
<path id="Vector_3" d="M32.0002 9.9988C32.0002 15.5211 27.5728 19.9976 22.1113 19.9976C19.8942 20 17.7397 19.248 15.999 17.8592C18.2998 16.0286 19.7756 13.1876 19.7756 9.99645C19.7756 6.80529 18.2998 3.96896 16.0013 2.13838C17.7421 0.749593 19.8942 -0.00237493 22.1113 -2.50267e-05C27.5728 -2.50267e-05 32.0002 4.47653 32.0002 9.9988Z" fill="#F79E1B"/>
</g>
<defs>
<clipPath id="clip0_258_3700">
<rect width="32" height="20" fill="white"/>
</clipPath>
</defs>
</svg>
