<svg width="16" height="20" viewBox="0 0 16 20" fill="none" xmlns="http://www.w3.org/2000/svg">
<g id="Paypal" clip-path="url(#clip0_258_3696)">
<g id="Group">
<path id="Vector" fill-rule="evenodd" clip-rule="evenodd" d="M14.2524 6.33655C14.2212 6.64708 14.1666 6.94922 14.0964 7.24297C13.8468 8.23332 13.3631 9.11456 12.7078 9.81955C11.7405 10.8603 10.4065 11.5065 8.92428 11.5065H5.4528L3.87699 17.7843C3.72877 18.7914 3.58835 19.5216 3.58835 19.5216C3.54934 19.7398 3.68196 19.9496 3.88479 19.9916C3.90819 20 3.9316 20 3.955 20H7.49669C7.69171 20 7.85554 19.8321 7.86334 19.6307L8.50302 14.872H11.4518C12.7 14.872 13.839 14.3349 14.6581 13.4788C15.485 12.6143 15.9921 11.4226 15.9921 10.1049C15.9921 9.36634 15.8282 8.66135 15.5396 8.03189C15.2431 7.37725 14.8063 6.81494 14.2758 6.37012L14.2524 6.33655Z" fill="#179BD7"/>
<path id="Vector_2" d="M4.67246 17.5073C4.65686 17.5997 4.64906 17.7004 4.63346 17.7843H3.87675H0.366269V17.7759C0.350667 17.7759 0.327264 17.7759 0.311662 17.7759C0.116635 17.7507 -0.0237841 17.5409 -0.000380906 17.3227L2.21512 0.369282C2.23073 0.167856 2.39455 0 2.58958 0H8.93185C10.4141 0 11.748 0.646244 12.7154 1.68695C13.6827 2.72765 14.2756 4.16282 14.2756 5.75745C14.2756 5.95888 14.2678 6.15191 14.2522 6.34494C14.221 6.65548 14.1664 6.95762 14.0962 7.25136C13.8465 8.24171 13.3629 9.12295 12.7076 9.82795C11.7402 10.8687 10.4062 11.5149 8.92405 11.5149H5.45257L4.68806 17.4234C4.68026 17.4402 4.68026 17.4738 4.67246 17.5073Z" fill="#253B80"/>
</g>
</g>
<defs>
<clipPath id="clip0_258_3696">
<rect width="16" height="20" fill="white"/>
</clipPath>
</defs>
</svg>
