<svg width="21" height="20" viewBox="0 0 21 20" fill="none" xmlns="http://www.w3.org/2000/svg">
<g id="Rider" clip-path="url(#clip0_258_3519)">
<g id="Group">
<path id="Vector" d="M10.767 14.8992L10.406 15.4871L10.2891 15.6565L10.9247 16.003L11.3543 15.2894L10.767 14.8992Z" fill="#EFC79C"/>
<path id="Vector_2" d="M9.96617 8.64837C9.96617 8.64837 13.795 9.86002 14.3213 10.5069C14.8475 11.1538 11.4026 15.41 11.4026 15.41L10.6145 14.9325C10.6145 14.9325 11.7357 12.1396 12.7119 11.6518C12.9077 11.3155 10.9145 11.0768 9.23397 10.9716C7.55346 10.8663 7.86617 9.85489 8.4077 8.61243C9.39159 8.18373 9.96617 8.64837 9.96617 8.64837Z" fill="#1D3D63"/>
<path id="Vector_3" d="M9.52637 2.91351C9.52637 2.91351 9.9306 2.07151 9.98654 1.58633C10.5713 2.35389 11.0467 2.72354 11.0594 2.75692C10.5942 3.26006 10.4899 4.03788 10.4899 4.03788L9.52637 2.91351Z" fill="#F7C58D"/>
<g id="Group_2">
<path id="Vector_4" d="M3.80062 12.9842H3.16503C2.99215 12.9842 2.82944 13.0663 2.72774 13.2075L2.1913 13.9442C2.0591 14.1265 2.04893 14.3729 2.17096 14.5629L2.43537 14.9839L3.80062 12.9842Z" fill="#FF3355"/>
<path id="Vector_5" d="M2.13536 14.1933L2.6718 13.4565C2.77349 13.3153 2.9362 13.2332 3.10908 13.2332H3.62773L3.80061 12.9816H3.16502C2.99213 12.9816 2.82942 13.0637 2.72773 13.2049L2.19129 13.9417C2.11756 14.0418 2.08451 14.1599 2.08705 14.278C2.09976 14.2497 2.11502 14.2215 2.13536 14.1933Z" fill="#FF7190"/>
<g id="Group_3">
<path id="Vector_6" d="M18.6129 19.9999C19.9313 19.9999 21.0002 18.9207 21.0002 17.5895C21.0002 16.2582 19.9313 15.179 18.6129 15.179C17.2944 15.179 16.2256 16.2582 16.2256 17.5895C16.2256 18.9207 17.2944 19.9999 18.6129 19.9999Z" fill="#333333"/>
<path id="Vector_7" d="M18.6127 19.4481C19.6292 19.4481 20.4533 18.616 20.4533 17.5895C20.4533 16.5631 19.6292 15.731 18.6127 15.731C17.5961 15.731 16.772 16.5631 16.772 17.5895C16.772 18.616 17.5961 19.4481 18.6127 19.4481Z" fill="#FFECC5"/>
<path id="Vector_8" d="M18.613 19.022C19.3965 19.022 20.0316 18.3807 20.0316 17.5896C20.0316 16.7985 19.3965 16.1571 18.613 16.1571C17.8295 16.1571 17.1943 16.7985 17.1943 17.5896C17.1943 18.3807 17.8295 19.022 18.613 19.022Z" fill="#E2E2E2"/>
<path id="Vector_9" d="M18.613 18.8243C19.2884 18.8243 19.8359 18.2715 19.8359 17.5896C19.8359 16.9076 19.2884 16.3548 18.613 16.3548C17.9376 16.3548 17.3901 16.9076 17.3901 17.5896C17.3901 18.2715 17.9376 18.8243 18.613 18.8243Z" fill="#A5A5A5"/>
<path id="Vector_10" d="M17.9269 14.8744L17.3999 15.0712L18.388 17.7678L18.9149 17.5709L17.9269 14.8744Z" fill="#E2E2E2"/>
<path id="Vector_11" d="M18.6128 17.9617C18.8164 17.9617 18.9814 17.7951 18.9814 17.5895C18.9814 17.3839 18.8164 17.2173 18.6128 17.2173C18.4092 17.2173 18.2441 17.3839 18.2441 17.5895C18.2441 17.7951 18.4092 17.9617 18.6128 17.9617Z" fill="#333333"/>
<path id="Vector_12" d="M18.6125 17.7795C18.7164 17.7795 18.8006 17.6944 18.8006 17.5895C18.8006 17.4846 18.7164 17.3995 18.6125 17.3995C18.5085 17.3995 18.4243 17.4846 18.4243 17.5895C18.4243 17.6944 18.5085 17.7795 18.6125 17.7795Z" fill="#7F7F7F"/>
</g>
<g id="Group_4">
<path id="Vector_13" d="M5.21151 19.982C6.52997 19.982 7.59879 18.9028 7.59879 17.5715C7.59879 16.2402 6.52997 15.161 5.21151 15.161C3.89304 15.161 2.82422 16.2402 2.82422 17.5715C2.82422 18.9028 3.89304 19.982 5.21151 19.982Z" fill="#333333"/>
<path id="Vector_14" d="M5.21128 19.4301C6.22786 19.4301 7.05196 18.598 7.05196 17.5716C7.05196 16.5451 6.22786 15.713 5.21128 15.713C4.1947 15.713 3.37061 16.5451 3.37061 17.5716C3.37061 18.598 4.1947 19.4301 5.21128 19.4301Z" fill="#FFECC5"/>
<path id="Vector_15" d="M5.21161 19.0039C5.99511 19.0039 6.63026 18.3626 6.63026 17.5715C6.63026 16.7804 5.99511 16.139 5.21161 16.139C4.42812 16.139 3.79297 16.7804 3.79297 17.5715C3.79297 18.3626 4.42812 19.0039 5.21161 19.0039Z" fill="#E2E2E2"/>
<path id="Vector_16" d="M5.21165 18.8062C5.88703 18.8062 6.43453 18.2534 6.43453 17.5715C6.43453 16.8895 5.88703 16.3367 5.21165 16.3367C4.53627 16.3367 3.98877 16.8895 3.98877 17.5715C3.98877 18.2534 4.53627 18.8062 5.21165 18.8062Z" fill="#A5A5A5"/>
<path id="Vector_17" d="M5.21093 17.9438C5.41453 17.9438 5.57957 17.7771 5.57957 17.5715C5.57957 17.366 5.41453 17.1993 5.21093 17.1993C5.00733 17.1993 4.84229 17.366 4.84229 17.5715C4.84229 17.7771 5.00733 17.9438 5.21093 17.9438Z" fill="#333333"/>
<path id="Vector_18" d="M5.21109 17.7615C5.31499 17.7615 5.39922 17.6765 5.39922 17.5716C5.39922 17.4666 5.31499 17.3816 5.21109 17.3816C5.10718 17.3816 5.02295 17.4666 5.02295 17.5716C5.02295 17.6765 5.10718 17.7615 5.21109 17.7615Z" fill="#7F7F7F"/>
</g>
<g id="Group_5">
<path id="Vector_19" d="M16.7215 15.9132C16.7215 15.9132 18.6766 14.9429 20.7511 15.482C20.7359 14.3935 19.9071 12.9175 17.4333 13.5156C14.9596 14.1137 16.7215 15.9132 16.7215 15.9132Z" fill="#FFB206"/>
<path id="Vector_20" d="M17.291 13.6414C16.869 13.7441 16.569 13.8827 16.3656 14.0393C16.2842 14.124 16.2257 14.2139 16.1851 14.3037C16.3859 14.1677 16.663 14.047 17.0418 13.9546C19.124 13.4489 20.0393 14.4141 20.2859 15.3845C20.3901 15.3999 20.4944 15.4204 20.5986 15.4435C20.5071 14.3782 19.6452 13.0715 17.291 13.6414Z" fill="#FFCF03"/>
</g>
<path id="Vector_21" d="M16.1465 6.1763C16.1465 6.1763 16.6728 7.11328 16.1897 7.80125C15.7753 7.69857 16.1465 6.1763 16.1465 6.1763Z" fill="#EFEFEF"/>
<path id="Vector_22" d="M17.4311 13.5156L18.1938 13.2999C18.1938 13.2999 17.4819 11.1359 15.6107 7.89883C15.4455 7.97071 15.2573 8.02975 15.2573 8.02975L17.4311 13.5156Z" fill="#FFB206"/>
<path id="Vector_23" d="M14.5654 8.05539C14.5654 8.05539 16.2154 12.0369 15.2493 14.2035C15.0586 14.9403 15.9815 14.7426 15.9815 14.7426C15.9815 14.7426 17.0392 12.3424 14.8375 7.89623C14.7383 7.83462 14.5654 8.05539 14.5654 8.05539Z" fill="#FFB206"/>
<path id="Vector_24" d="M11.4356 11.5646C11.4356 11.5646 7.02967 11.5595 6.19069 11.5569C5.3517 11.5543 2.69238 12.7146 1.86865 16.3111C4.08306 16.3137 6.3712 16.3162 7.01187 16.3188C7.65255 16.3214 7.77967 17.4817 7.77967 17.4817C10.1924 17.4842 13.4644 17.4894 14.217 17.4894C14.9695 17.4894 16.3017 14.5655 15.5949 13.0663C15.2822 14.6297 14.5958 15.4332 13.8203 15.6565C13.2254 15.8285 11.4763 15.8131 10.7009 15.7951C10.4695 15.79 10.2737 15.6283 10.2229 15.3998C10.1263 14.966 10.0093 14.2395 10.1263 13.6157C10.3042 12.6582 11.3466 12.5247 11.4356 11.5646Z" fill="#FFB206"/>
<g id="Group_6">
<path id="Vector_25" d="M1.75684 16.5139L8.03141 16.5216C8.03141 16.5216 8.94667 14.545 8.21701 13.4206C7.48735 12.2962 4.48226 12.6453 3.20345 13.7826C1.92463 14.9198 1.75684 16.5139 1.75684 16.5139Z" fill="#FFCF03"/>
<path id="Vector_26" d="M7.82575 16.5217C8.0088 16.0776 8.53762 14.6041 7.94778 13.7031C7.28423 12.6891 4.66304 12.9355 3.34863 13.8853C4.74185 13.2076 6.83423 13.128 7.41643 14.0162C7.90202 14.7607 7.6249 15.8979 7.41134 16.5191L7.82575 16.5217Z" fill="#FFE10B"/>
</g>
<g id="Group_7">
<path id="Vector_27" d="M7.59863 16.8065C7.59863 16.8065 11.6995 16.8117 12.8436 16.8142C13.9876 16.8168 16.2478 15.025 15.7952 12.2757C15.3452 9.52378 14.6486 8.21457 14.6486 8.21457L15.4469 7.9707C15.4469 7.9707 16.9698 10.9665 17.3003 11.8624C17.6308 12.7583 18.1266 15.161 16.3317 16.8168C15.5995 17.4355 15.0351 17.687 14.2063 17.6845C13.3774 17.6845 7.83253 17.6768 7.83253 17.6768L7.59863 16.8065Z" fill="#FFCF03"/>
<g id="Group_8">
<path id="Vector_28" d="M17.3007 11.8624C16.9702 10.969 15.4473 7.9707 15.4473 7.9707L15.1499 8.06312C15.516 8.83324 16.571 11.0871 16.8024 11.9394C17.0516 12.861 17.5804 15.3305 15.7855 16.9862C15.4371 17.2814 15.1244 17.4919 14.8066 17.6331C15.3405 17.5304 15.7905 17.2763 16.3321 16.8168C18.127 15.161 17.6312 12.7557 17.3007 11.8624Z" fill="#FFE10B"/>
</g>
<path id="Vector_29" d="M12.9609 17.0452C14.1075 17.0478 16.4388 15.1738 15.9863 12.4245C15.577 9.94215 14.8753 8.45325 14.7431 8.18628L14.649 8.21452C14.649 8.21452 15.3456 9.52372 15.7982 12.273C16.2507 15.0224 13.9905 16.8142 12.8465 16.8116C11.7024 16.809 7.60156 16.8039 7.60156 16.8039L7.66258 17.0349C8.5041 17.0375 11.9566 17.0426 12.9609 17.0452Z" fill="#4C4C4C"/>
</g>
<path id="Vector_30" d="M6.53693 10.4171C6.53693 10.4171 5.70557 11.5569 6.5776 11.5569C7.44964 11.5569 11.1971 11.562 11.4361 11.5646C11.6751 11.5671 11.9979 10.643 11.5581 10.6096C11.1183 10.5762 9.75557 10.7405 8.72845 10.5044C7.70133 10.2682 6.85218 10.05 6.53693 10.4171Z" fill="#4C4C4C"/>
<path id="Vector_31" d="M14.5835 8.28394C14.5835 8.28394 15.6462 7.93225 15.7784 7.89888C15.9106 7.86551 16.1928 7.83214 16.1928 7.83214C16.1928 7.83214 16.02 6.54091 16.1954 6.18152C15.8216 5.81956 15.3005 5.93765 14.7513 6.45619C14.2022 6.97474 14.0115 7.06715 14.0522 7.20834C14.0928 7.34953 14.5835 8.28394 14.5835 8.28394Z" fill="#FFCF03"/>
<g id="Group_9">
<path id="Vector_32" d="M14.67 6.98745L14.6318 6.92327L15.3844 6.47404C15.4403 6.44067 15.4784 6.38419 15.4937 6.32001L15.7912 4.85165L15.8649 4.86706L15.5674 6.33542C15.5496 6.42013 15.4988 6.49457 15.4251 6.53821L14.67 6.98745Z" fill="#A5A5A5"/>
</g>
<path id="Vector_33" d="M15.0823 7.2617C15.0826 7.00651 14.8894 6.79938 14.6507 6.79906C14.412 6.79874 14.2182 7.00536 14.2179 7.26055C14.2176 7.51575 14.4108 7.72288 14.6495 7.7232C14.8882 7.72352 15.082 7.5169 15.0823 7.2617Z" fill="#EFC100"/>
<path id="Vector_34" d="M13.6372 6.86426C13.6372 6.86426 14.1203 6.84886 14.2957 6.68714C14.4711 6.52541 14.6643 6.53055 14.8398 6.67944C15.0152 6.82832 15.155 7.12867 15.0787 7.29553C15.0025 7.46239 14.8194 7.53427 14.6923 7.49063C14.7431 7.60871 14.466 7.62668 14.3313 7.57534C14.1965 7.524 13.8736 7.44442 13.7465 7.47266C13.6372 7.32634 13.6372 6.86426 13.6372 6.86426Z" fill="#21457A"/>
<path id="Vector_35" d="M14.4023 7.93482C14.5015 8.12735 14.5829 8.28394 14.5829 8.28394C14.5829 8.28394 15.6456 7.93226 15.7778 7.89888C15.91 7.86551 16.1922 7.83214 16.1922 7.83214C16.1922 7.83214 16.1617 7.59597 16.1388 7.29562C15.7193 7.74486 15.0532 7.89632 14.4023 7.93482Z" fill="#FFB206"/>
<path id="Vector_36" d="M14.6009 7.41111C14.7343 7.41111 14.8424 7.30193 14.8424 7.16724C14.8424 7.03256 14.7343 6.92337 14.6009 6.92337C14.4675 6.92337 14.3594 7.03256 14.3594 7.16724C14.3594 7.30193 14.4675 7.41111 14.6009 7.41111Z" fill="#353535"/>
<g id="Group_10">
<path id="Vector_37" d="M15.9457 4.70373C16.0099 4.32214 15.9419 3.99219 15.7938 3.96676C15.6457 3.94134 15.4735 4.23007 15.4093 4.61165C15.345 4.99324 15.413 5.32319 15.5612 5.34862C15.7093 5.37404 15.8814 5.08531 15.9457 4.70373Z" fill="#FFCF03"/>
<path id="Vector_38" d="M15.8049 4.67936C15.856 4.37604 15.8211 4.11706 15.727 4.1009C15.6328 4.08475 15.5151 4.31753 15.464 4.62084C15.413 4.92416 15.4479 5.18314 15.542 5.1993C15.6362 5.21546 15.7539 4.98267 15.8049 4.67936Z" fill="#EFEFEF"/>
</g>
</g>
<g id="Group_11">
<path id="Vector_39" d="M11.6104 15.084L11.3435 15.7207L11.252 15.9055L11.9333 16.1494L12.2486 15.3793L11.6104 15.084Z" fill="#FFDAAE"/>
<path id="Vector_40" d="M10.0268 8.83838C10.0268 8.83838 13.9649 9.60593 14.5623 10.1861C15.1598 10.7688 12.2844 15.5205 12.2844 15.5205L11.4479 15.138C11.4479 15.138 12.1776 12.1063 13.0929 11.5081C13.2479 11.1513 11.242 11.1436 9.55896 11.2283C7.8759 11.3156 7.32421 10.1296 7.7259 8.83325C8.65641 8.2993 10.0268 8.83838 10.0268 8.83838Z" fill="#21457A"/>
<path id="Vector_41" d="M12.2844 15.5203C12.2844 15.5203 15.1598 10.7687 14.5624 10.186C14.12 9.75472 11.8547 9.2259 10.7005 8.9769C10.3573 8.99487 9.89456 9.10782 9.50049 9.50828C10.4132 9.31575 13.3191 9.99089 13.8835 10.1423C14.4479 10.2938 14.4886 10.5864 14.3056 11.0819C14.1276 11.5594 12.5615 14.7682 12.1471 15.4587L12.2844 15.5203Z" fill="#275389"/>
<path id="Vector_42" d="M7.67538 9.12841C7.67538 9.12841 7.28894 4.85681 9.52623 2.91354C10.0805 3.15998 10.5203 3.80945 10.7415 4.36907C10.9627 4.92869 10.8025 8.48151 10.7364 8.74848C10.7186 8.81779 10.5483 8.89994 10.2915 8.97695C9.56436 9.19515 8.32877 9.39282 7.67538 9.12841Z" fill="#52A5F6"/>
</g>
<path id="Vector_43" d="M9.50049 9.23877C9.50049 9.23877 10.3522 8.87425 10.4768 7.16202C10.6013 5.44979 10.5785 4.65143 10.5785 4.65143C10.5785 4.65143 10.9751 5.92469 10.9954 6.79493C11.0157 7.66516 10.8835 8.62524 10.7157 9.03854C10.553 9.45184 9.50049 9.23877 9.50049 9.23877Z" fill="#21457A"/>
<path id="Vector_44" d="M9.69906 4.94659C9.82363 5.69874 10.2355 7.51622 10.5711 7.8679C11.1253 8.44806 13.7923 7.68564 13.7923 7.68564L13.7058 6.86675C12.877 6.85391 11.7457 6.85135 11.5702 6.77433C11.3948 6.69732 11.0389 4.92862 10.9397 4.55896C10.8406 4.1893 10.5609 3.96597 10.0957 3.9865C9.63041 4.00704 9.65584 4.67961 9.69906 4.94659Z" fill="#67B7F9"/>
<path id="Vector_45" d="M7.89144 9.26701C7.89144 9.26701 7.82788 6.80776 8.26009 5.84255C8.99229 4.61035 9.57449 4.04047 9.93042 3.93008C10.2864 3.81713 10.5864 4.03533 10.5864 4.03533C10.5864 4.03533 10.4999 3.81713 10.4008 3.72215C10.3016 3.62717 9.88212 3.52449 9.50839 3.80173C9.13466 4.07897 8.14314 5.28036 7.955 5.73986C7.6906 6.3842 7.64992 7.01313 7.63721 9.19256C7.69568 9.30808 7.89144 9.26701 7.89144 9.26701Z" fill="#21457A"/>
<path id="Vector_46" d="M11.344 15.7206C11.344 15.7206 11.4813 16.0774 11.9694 16.062C12.2898 16.352 13.1109 16.3597 13.3982 16.3495C13.6855 16.3392 13.5864 16.6858 13.177 16.7961C12.7677 16.9065 11.0516 16.809 10.8762 16.809C10.7008 16.809 10.9652 15.9259 11.344 15.7206Z" fill="black"/>
<g id="Group_12">
<path id="Vector_47" d="M11.9441 2.16134C11.9797 2.05096 11.7865 1.83789 11.9441 1.50417C12.1017 1.17045 11.6695 0.877809 11.6695 0.877809C11.6695 0.877809 11.6619 0.890644 11.6466 0.911181C11.4509 0.585164 11.1433 0.374664 10.7975 0.374664C10.2051 0.374664 9.72461 0.985626 9.72461 1.74034C9.72461 2.49506 10.2026 3.08292 10.7949 3.08292C10.8102 3.08292 10.8255 3.10602 10.8433 3.10345C11.0772 3.25748 11.4 3.11886 11.4407 3.01104C11.4916 2.87755 11.5221 2.79797 11.6034 2.79797C11.6848 2.79797 11.6644 2.69272 11.6034 2.64138C11.6466 2.65678 11.7356 2.64652 11.7204 2.61571C11.7051 2.58491 11.7356 2.51816 11.7585 2.34617C11.9695 2.43858 12.0051 2.22038 11.9441 2.16134Z" fill="#F7C58D"/>
</g>
<path id="Vector_48" d="M9.59229 2.33844L9.61771 2.71067C9.61771 2.71067 10.2431 2.90063 10.4262 2.52584C10.6118 2.15105 9.59229 2.33844 9.59229 2.33844Z" fill="#353535"/>
<path id="Vector_49" d="M11.4585 1.61464C11.4585 1.61464 11.7382 1.52479 11.8348 1.61464C11.8449 1.64544 11.8144 1.68395 11.761 1.67368C11.7102 1.66341 11.5399 1.62234 11.4585 1.61464Z" fill="#353535"/>
<path id="Vector_50" d="M11.9619 2.00993C11.8754 2.00479 11.3619 2.00736 11.1737 2.00736V2.00479L10.8381 1.89441L10.8178 1.95859L11.1102 2.05357C11.1229 2.26407 10.95 2.50794 10.8686 2.61062L10.7135 2.39242L10.6602 2.43093L10.8305 2.67223C10.8457 2.72871 10.9322 3.00081 11.3085 3.17281C11.7686 3.00595 12.0941 2.27947 11.9619 2.00993Z" fill="#BBE0FF"/>
<path id="Vector_51" d="M11.3848 1.37079C11.4204 1.37592 11.911 1.42983 12.0865 1.67627C12.2288 1.55305 12.0305 1.34769 12.0305 1.34769L11.3848 1.37079Z" fill="#353535"/>
<path id="Vector_52" d="M11.1457 1.36553C11.1457 1.36553 12.0762 1.48105 12.3584 1.59143C12.516 0.880355 12.0279 0.282229 11.2575 0.0640288C10.4872 -0.154172 9.67365 0.215486 9.4067 0.944532C9.13975 1.67358 9.31517 2.00216 9.48805 2.27427C9.62789 2.49504 9.84907 2.65676 10.472 2.61826C10.8838 2.59259 10.8838 1.99703 10.9423 1.77626C11.0008 1.55293 11.0211 1.33473 11.1457 1.36553Z" fill="#FFCF03"/>
<g id="Group_13">
<path id="Vector_53" d="M11.2447 0.0615199C10.7642 -0.0745345 10.271 0.0204469 9.90234 0.284855C10.1998 0.179605 10.5379 0.164203 10.8659 0.256617C11.532 0.444013 11.9871 0.916352 11.9998 1.49908C12.1447 1.52731 12.2718 1.55812 12.3481 1.58892C12.5057 0.875279 12.0151 0.27972 11.2447 0.0615199Z" fill="#FFE10B"/>
</g>
<path id="Vector_54" d="M11.0516 1.26552C10.927 1.23472 10.9067 1.45292 10.8482 1.67882C10.7923 1.89959 10.7897 2.49515 10.3779 2.52082C9.92277 2.54905 9.68379 2.46948 9.53125 2.33856C9.67617 2.52595 9.90752 2.6543 10.4719 2.62093C10.8838 2.59526 10.8838 1.9997 10.9423 1.77893C11.0007 1.55303 11.0211 1.33483 11.1457 1.36564C11.1457 1.36564 12.0762 1.48116 12.3584 1.59154C12.3685 1.5479 12.3762 1.50426 12.3812 1.46062C12.0889 1.3528 11.0516 1.26552 11.0516 1.26552Z" fill="#353535"/>
<path id="Vector_55" opacity="0.49" d="M12.4449 1.33483C12.4449 1.33483 12.4729 2.4361 11.6339 3.31404C11.3848 3.43726 10.5153 3.11124 10.6449 2.23844C10.7365 1.61977 10.6424 1.17054 10.8305 1.07556C11.0187 0.978008 11.8907 1.35023 12.4449 1.33483Z" fill="#D2F0FF"/>
<g id="Group_14">
<path id="Vector_56" d="M8.22181 12.0112L5.75571 12.0086C5.58028 12.0086 5.41503 11.9136 5.32605 11.7622L5.02605 11.2539C4.99554 11.2025 4.93961 11.1692 4.87859 11.1692L0.785371 11.164C0.693846 11.164 0.620117 11.0896 0.620117 10.9972C0.620117 10.9048 0.693846 10.8303 0.785371 10.8303L4.87859 10.8355C5.05401 10.8355 5.21927 10.9304 5.30825 11.0819L5.60825 11.5902C5.63876 11.6415 5.69469 11.6749 5.75571 11.6749L8.22181 11.6775C8.31333 11.6775 8.38706 11.7519 8.38706 11.8443C8.38706 11.9367 8.31333 12.0112 8.22181 12.0112Z" fill="#4C4C4C"/>
</g>
<g id="Group_15">
<path id="Vector_57" d="M4.1285 10.8328L1.65222 10.8303C0.79036 10.8303 0.09375 10.1218 0.09375 9.25152L0.0962924 7.1568C0.0962924 6.28657 0.797987 5.58319 1.65985 5.58319L4.13358 5.58576C4.99544 5.58576 5.69205 6.29427 5.69205 7.1645L5.68951 9.25922C5.68951 10.1295 4.99036 10.8354 4.1285 10.8328Z" fill="#FFB206"/>
<path id="Vector_58" d="M5.69537 6.85133V6.035C5.69537 5.78856 5.49707 5.58833 5.253 5.58833L0.541982 5.58063C0.297915 5.58063 0.0996094 5.78086 0.0996094 6.0273V6.84362L5.69537 6.85133Z" fill="#EA9C00"/>
<path id="Vector_59" d="M5.79407 6.63575V6.03505C5.79407 5.77835 5.59068 5.57298 5.33644 5.57041L0.46017 5.56271C0.205932 5.56271 0.00254237 5.76808 0 6.02479V6.62548L5.79407 6.63575Z" fill="#FFCF03"/>
</g>
</g>
</g>
<defs>
<clipPath id="clip0_258_3519">
<rect width="21" height="20" fill="white"/>
</clipPath>
</defs>
</svg>
