<svg width="20" height="20" viewBox="0 0 20 20" fill="none" xmlns="http://www.w3.org/2000/svg">
<g id="080-russia" clip-path="url(#clip0_258_4593)">
<path id="Vector" d="M10.001 20.0005C15.5237 20.0005 20.0006 15.5235 20.0006 10.0009C20.0006 4.47831 15.5237 0.00134277 10.001 0.00134277C4.47843 0.00134277 0.00146484 4.47831 0.00146484 10.0009C0.00146484 15.5235 4.47843 20.0005 10.001 20.0005Z" fill="white"/>
<path id="Vector_2" d="M19.4284 6.6658H13.2671C13.5347 8.80197 13.5363 11.1557 13.2723 13.2945H19.4416C19.8017 12.2627 19.9997 11.1546 19.9997 10.0001C19.9999 8.83038 19.7973 7.7087 19.4284 6.6658Z" fill="#2B479D"/>
<path id="Vector_3" d="M13.2667 6.66584H19.4279C19.427 6.66268 19.426 6.66002 19.4247 6.65715C18.145 3.04851 14.8529 0.393509 10.8975 0.0410767C12.4283 0.880124 12.8754 3.53846 13.2667 6.66584Z" fill="#EFECEC"/>
<path id="Vector_4" d="M10.8979 19.9586C14.8605 19.6055 18.1572 16.9413 19.432 13.323C19.4353 13.3134 19.4381 13.3039 19.4416 13.2946H13.2722C12.8839 16.4389 12.4349 19.116 10.8979 19.9586Z" fill="#E63026"/>
<path id="Vector_5" d="M0 10C0 11.1547 0.19832 12.2626 0.558141 13.2945H13.787C14.0513 11.1555 14.0494 8.80191 13.7821 6.66574H0.571441C0.202584 7.70868 0 8.83037 0 10Z" fill="#3757A6"/>
<path id="Vector_6" d="M0.574456 6.65717C0.573527 6.66 0.572556 6.6627 0.571289 6.66587H13.782C13.3905 3.53844 12.4285 0.880149 10.8979 0.0411014C10.6019 0.0148812 10.3025 6.10356e-05 9.99968 6.10356e-05C5.64953 1.8813e-05 1.95019 2.77831 0.574456 6.65717Z" fill="#EFEFEF"/>
<path id="Vector_7" d="M13.787 13.2945H0.558105C0.561441 13.3039 0.564566 13.3133 0.567732 13.3229C1.93798 17.2117 5.64263 19.9999 9.99975 19.9999C10.3026 19.9999 10.602 19.985 10.898 19.9585C12.4351 19.116 13.3987 16.4389 13.787 13.2945Z" fill="#E73B36"/>
</g>
<defs>
<clipPath id="clip0_258_4593">
<rect width="20" height="20" fill="white"/>
</clipPath>
</defs>
</svg>
