<svg width="20" height="20" viewBox="0 0 20 20" fill="none" xmlns="http://www.w3.org/2000/svg">
<g id="015-twitter">
<path id="Logo_1_" d="M17.9528 5.91994C17.9648 6.09592 17.9648 6.27276 17.9648 6.45034C17.9648 11.8727 13.8368 18.1255 6.28961 18.1255V18.1223C4.05992 18.1253 1.87652 17.4865 0 16.2824C0.32418 16.3212 0.650313 16.3409 0.976797 16.3416C2.82484 16.3435 4.61977 15.7235 6.07281 14.5816C4.31727 14.5486 2.77676 13.4035 2.23922 11.732C2.8541 11.8504 3.48793 11.8263 4.09203 11.6616C2.17742 11.2748 0.800547 9.59244 0.800039 7.6392C0.800039 7.62159 0.800039 7.60401 0.800039 7.58721C1.37066 7.9053 2.00941 8.08147 2.66246 8.1008C0.859179 6.89662 0.302891 4.49807 1.39199 2.62315C3.47559 5.18662 6.54953 6.74494 9.84879 6.91037C9.51805 5.48537 9.9702 3.99198 11.0359 2.98979C12.6883 1.4358 15.2876 1.51557 16.8416 3.16799C17.7605 2.98678 18.6417 2.64994 19.4471 2.17198C19.1409 3.12221 18.4997 3.92877 17.6432 4.44159C18.4566 4.34545 19.2511 4.12784 20 3.796C19.4491 4.61987 18.7559 5.33909 17.9528 5.91994Z" fill="#1D9BF0"/>
</g>
</svg>
