<svg width="20" height="20" viewBox="0 0 20 20" fill="none" xmlns="http://www.w3.org/2000/svg">
<g id="USA flag">
<path id="Vector" d="M15.63 20H4.38C1.96 20 0 18.04 0 15.63V4.38C0 1.96 1.96 0 4.38 0H15.63C18.04 0 20 1.96 20 4.38V15.63C20 18.04 18.04 20 15.63 20Z" fill="#41479B"/>
<g id="Group">
<path id="Vector_2" d="M20.0001 15.62V14.66L16.9001 12.63H20.0001V11.58H11.5801V20H12.6301V13.61L19.3101 17.98C19.5501 17.61 19.7301 17.21 19.8501 16.77" fill="#F5F5F5"/>
<path id="Vector_3" d="M0.29 17.2C0.4 17.48 0.53 17.74 0.69 17.98L7.37 13.61V20H8.42V11.58H0V12.63H3.1L0 14.66V15.62C0 15.79 0.01 15.95 0.03 16.12" fill="#F5F5F5"/>
<path id="Vector_4" d="M0 4.52V5.33L3.1 7.36H0V8.41H8.42V0H7.37V6.39L0.69 2.01C0.43 2.41 0.24 2.86 0.12 3.34" fill="#F5F5F5"/>
<path id="Vector_5" d="M19.7001 2.78C19.5901 2.51 19.4601 2.25 19.3101 2.01L12.6301 6.38V0H11.5801V8.42H20.0001V7.37H16.9001L20.0001 5.34V4.38C20.0001 4.21 19.9901 4.03 19.9701 3.87" fill="#F5F5F5"/>
</g>
<g id="Group_2">
<path id="Vector_6" d="M11.58 0H8.42V8.42H0V11.58H8.42V20H11.58V11.58H20V8.42H11.58V0Z" fill="#FF4B55"/>
<path id="Vector_7" d="M5.40978 12.63L0.0297852 16.12C0.0697852 16.5 0.159785 16.86 0.299785 17.2L7.34978 12.63H5.40978Z" fill="#FF4B55"/>
<path id="Vector_8" d="M13.46 12.63L19.85 16.78C19.95 16.41 20 16.03 20 15.63L15.39 12.64L13.46 12.63Z" fill="#FF4B55"/>
<path id="Vector_9" d="M6.32 7.37001L0.12 3.35001C0.04 3.68001 0 4.02001 0 4.38001V4.53001L4.38 7.37001H6.32Z" fill="#FF4B55"/>
<path id="Vector_10" d="M14.5601 7.37L19.9601 3.86C19.9201 3.48 19.8201 3.12 19.6901 2.78L12.6201 7.37H14.5601Z" fill="#FF4B55"/>
</g>
</g>
</svg>
