<svg width="20" height="20" viewBox="0 0 20 20" fill="none" xmlns="http://www.w3.org/2000/svg">
<g id="070-united-states-of-america" clip-path="url(#clip0_258_4601)">
<g id="Group">
<path id="Vector" d="M19.956 10.9353H0.0454102V10.9356H19.956V10.9353Z" fill="#C42126"/>
<path id="Vector_2" d="M18.9178 5.47632H1.08203V5.47661H18.9178V5.47632Z" fill="#C42126"/>
<path id="Vector_3" d="M19.6267 7.29568H0.373047V7.29598H19.6267V7.29568Z" fill="#C42126"/>
<path id="Vector_4" d="M4.298 18.2132H15.7022L15.7028 18.2126H4.29736L4.298 18.2132Z" fill="#C42126"/>
<path id="Vector_5" d="M10.0002 0C9.80381 0 9.60895 0.00709344 9.41553 0.0181558H10.5851C10.3915 0.00709344 10.1966 0 10.0002 0Z" fill="#C42126"/>
<path id="Vector_6" d="M19.9585 9.11551H0.0415039V9.1158H19.9585V9.11551Z" fill="#C42126"/>
</g>
<path id="Vector_7" d="M12.9552 3.6569H17.7303C17.1631 2.96643 16.5039 2.35521 15.7736 1.83777H12.188C12.4847 2.35977 12.7398 2.97572 12.9552 3.6569Z" fill="#E7E7E7"/>
<path id="Vector_8" d="M12.1883 1.83778H15.774C14.2917 0.78732 12.512 0.129488 10.5847 0.0181885H10.2769C11.184 0.132359 11.6006 0.803703 12.1883 1.83778Z" fill="#DC3027"/>
<path id="Vector_9" d="M19.6271 7.29588C19.4493 6.66177 19.2109 6.05338 18.9178 5.47675H13.4243C13.5356 6.06081 13.6234 6.67089 13.6885 7.29588H19.6271Z" fill="#E7E7E7"/>
<path id="Vector_10" d="M13.1154 5.47644H18.9178C18.5871 4.82608 18.1899 4.21579 17.7307 3.65701H12.6621C12.8408 4.22276 12.9926 4.83305 13.1154 5.47644Z" fill="#DC3027"/>
<path id="Vector_11" d="M13.8989 10.9349H19.955C19.9837 10.6271 20 10.3153 20 10.0001C20 9.70186 19.9844 9.4074 19.9588 9.1156H13.9004C13.9201 9.72065 13.9197 10.3301 13.8989 10.9349Z" fill="#E7E7E7"/>
<path id="Vector_12" d="M19.9586 9.11533C19.9038 8.49052 19.7912 7.88264 19.6269 7.2962H13.4331C13.4953 7.89193 13.5364 8.50141 13.5564 9.11533H19.9586Z" fill="#DC3027"/>
<path id="Vector_13" d="M13.3198 14.5739H18.8916C19.1888 13.9979 19.431 13.3891 19.6126 12.7545H13.5892C13.5229 13.3804 13.4329 13.9904 13.3198 14.5739Z" fill="#E7E7E7"/>
<path id="Vector_14" d="M19.6127 12.7543C19.7806 12.168 19.8971 11.5602 19.955 10.9352H13.7101C13.6888 11.5496 13.6465 12.1589 13.583 12.7543H19.6127Z" fill="#DC3027"/>
<path id="Vector_15" d="M15.7024 18.2126C16.4433 17.6973 17.1118 17.0854 17.688 16.3935H12.9961C12.7768 17.0775 12.5164 17.6925 12.2144 18.2126H15.7024Z" fill="#E7E7E7"/>
<g id="Group_2">
<path id="Vector_16" d="M12.8198 16.3934H17.6882C18.1527 15.8352 18.556 15.2249 18.8915 14.5739H13.2788C13.1543 15.2178 13.001 15.8284 12.8198 16.3934Z" fill="#DC3027"/>
<path id="Vector_17" d="M9.63729 19.9929C9.61707 19.9923 9.59688 19.9914 9.57666 19.9907C9.59688 19.9913 9.61711 19.9923 9.63729 19.9929Z" fill="#DC3027"/>
<path id="Vector_18" d="M10 20C12.1201 20 14.0844 19.3383 15.7022 18.2133H12.0831C11.4408 19.3199 11.017 20 10 20Z" fill="#DC3027"/>
</g>
<path id="Vector_19" d="M10.0001 20C9.87862 20 9.75799 19.9972 9.6377 19.9929C9.75925 19.997 9.88001 20 10.0001 20Z" fill="#C42126"/>
<path id="Vector_20" d="M12.5196 1.83777H4.22635C3.49594 2.35521 2.83688 2.96639 2.26953 3.6569H13.2867C13.0713 2.97572 12.8163 2.35977 12.5196 1.83777Z" fill="#F3F4F5"/>
<path id="Vector_21" d="M4.22607 1.83778H12.5194C11.9315 0.803703 11.1839 0.132359 10.2768 0.0181885H9.41514C7.48788 0.129488 5.70822 0.78732 4.22607 1.83778Z" fill="#E73625"/>
<path id="Vector_22" d="M0.373047 7.29588H14.0039C13.9388 6.67077 13.851 6.06081 13.7397 5.47675H1.08231C0.789238 6.05343 0.550847 6.66177 0.373047 7.29588Z" fill="#F3F4F5"/>
<path id="Vector_23" d="M2.2694 3.65689C1.81057 4.21567 1.413 4.82591 1.08252 5.47631H13.7398C13.6171 4.83305 13.4653 4.2228 13.2866 3.65689C13.2866 3.65689 2.2694 3.65689 2.2694 3.65689Z" fill="#E73625"/>
<path id="Vector_24" d="M0.000488281 10.0001C0.000488281 10.3153 0.016913 10.6271 0.0454979 10.9349H14.1264C14.1473 10.3301 14.1476 9.72078 14.1279 9.11572H0.0416978C0.0161107 9.4074 0.000488281 9.70186 0.000488281 10.0001Z" fill="#F3F4F5"/>
<path id="Vector_25" d="M0.0415039 9.11533H14.1275C14.1075 8.50129 14.0663 7.89197 14.0042 7.2962H0.37308C0.208706 7.88276 0.0961403 8.49052 0.0415039 9.11533Z" fill="#E73625"/>
<path id="Vector_26" d="M13.9993 12.7543H0.387695C0.569296 13.3891 0.811655 13.9978 1.10865 14.5738H13.7299C13.8429 13.9903 13.9327 13.3804 13.9993 12.7543Z" fill="#F3F4F5"/>
<path id="Vector_27" d="M0.387223 12.7543H13.9988C14.0621 12.1589 14.1045 11.5494 14.1259 10.9352H0.0449219C0.102852 11.5603 0.219556 12.168 0.387223 12.7543Z" fill="#E73625"/>
<path id="Vector_28" d="M4.29754 18.2126H12.4892C12.7912 17.6924 13.0517 17.0775 13.2709 16.3935H2.31201C2.88818 17.0854 3.55653 17.6973 4.29754 18.2126Z" fill="#F3F4F5"/>
<g id="Group_3">
<path id="Vector_29" d="M1.10889 14.5739C1.44443 15.2249 1.84766 15.8352 2.3122 16.3933H13.2711C13.4521 15.8284 13.6054 15.2178 13.7299 14.5739H1.10889Z" fill="#E73625"/>
<path id="Vector_30" d="M9.57725 19.9906C9.59748 19.9913 9.61766 19.9922 9.63788 19.9928C9.75822 19.9971 9.87885 19.9999 10.0002 19.9999C11.0173 19.9999 11.8465 19.3199 12.489 18.2132H4.29834C5.80768 19.2629 7.61938 19.909 9.57725 19.9906Z" fill="#E73625"/>
</g>
<path id="Vector_31" d="M9.79313 0.00515747C4.66867 0.109406 0.491985 4.06607 0.0424805 9.09899H9.7933V0.00515747H9.79313Z" fill="#283991"/>
<g id="Group_4">
<path id="Vector_32" d="M2.00144 5.66577L2.15378 6.13487H2.64736L2.24806 6.42494L2.40057 6.89437L2.00144 6.60413L1.60243 6.89437L1.75464 6.42494L1.35547 6.13487H1.84905L2.00144 5.66577Z" fill="#EFEFEF"/>
<path id="Vector_33" d="M2.00144 7.32306L2.15378 7.79245H2.64736L2.24806 8.08252L2.40057 8.55196L2.00144 8.26172L1.60243 8.55196L1.75464 8.08252L1.35547 7.79245H1.84905L2.00144 7.32306Z" fill="#EFEFEF"/>
<path id="Vector_34" d="M3.65883 3.1792L3.81121 3.64846H4.30463L3.90546 3.9387L4.05784 4.4078L3.65883 4.1179L3.25966 4.4078L3.41204 3.9387L3.0127 3.64846H3.50628L3.65883 3.1792Z" fill="#EFEFEF"/>
<path id="Vector_35" d="M3.65883 4.83673L3.81121 5.306H4.30463L3.90546 5.5959L4.05784 6.06533L3.65883 5.77543L3.25966 6.06533L3.41204 5.5959L3.0127 5.306H3.50628L3.65883 4.83673Z" fill="#EFEFEF"/>
<path id="Vector_36" d="M3.65883 6.49438L3.81121 6.96382H4.30463L3.90546 7.25355L4.05784 7.72299L3.65883 7.43279L3.25966 7.72299L3.41204 7.25355L3.0127 6.96382H3.50628L3.65883 6.49438Z" fill="#EFEFEF"/>
<path id="Vector_37" d="M0.742845 7.72302L0.590336 7.25359L0.989511 6.96369H0.496221L0.485159 6.92944C0.430987 7.09698 0.38205 7.26655 0.336914 7.43802L0.343881 7.43282L0.742845 7.72302Z" fill="#EFEFEF"/>
<path id="Vector_38" d="M1.60209 5.23678L2.0011 4.94658L2.40027 5.23678L2.24776 4.76735L2.64694 4.47715H2.15335L2.00097 4.00806L1.84859 4.47715H1.66669C1.63291 4.52833 1.60023 4.5798 1.56738 4.63173L1.75435 4.76735L1.60209 5.23678Z" fill="#EFEFEF"/>
<path id="Vector_39" d="M3.65879 2.46033L4.0578 2.75023L3.90541 2.28113L4.30442 1.99094H4.01942C3.77735 2.1719 3.54382 2.36343 3.31945 2.56551L3.25928 2.75023L3.65879 2.46033Z" fill="#EFEFEF"/>
<path id="Vector_40" d="M4.91699 1.92162L5.31617 1.63142L5.71517 1.92162L5.56279 1.45219L5.96179 1.16229H5.46838L5.44769 1.09912C5.28049 1.18454 5.11502 1.27342 4.9533 1.368L5.06921 1.45215L4.91699 1.92162Z" fill="#EFEFEF"/>
<path id="Vector_41" d="M5.3165 2.35056L5.46888 2.81953H5.9623L5.56313 3.10972L5.71551 3.57916L5.3165 3.28892L4.91733 3.57916L5.06971 3.10972L4.67041 2.81953H5.16395L5.3165 2.35056Z" fill="#EFEFEF"/>
<path id="Vector_42" d="M5.3165 4.00815L5.46888 4.47712H5.9623L5.56313 4.76731L5.71551 5.23675L5.3165 4.94651L4.91733 5.23675L5.06971 4.76731L4.67041 4.47712H5.16395L5.3165 4.00815Z" fill="#EFEFEF"/>
<path id="Vector_43" d="M5.3165 5.66577L5.46888 6.13487H5.9623L5.56313 6.42494L5.71551 6.89437L5.3165 6.60413L4.91733 6.89437L5.06971 6.42494L4.67041 6.13487H5.16395L5.3165 5.66577Z" fill="#EFEFEF"/>
<path id="Vector_44" d="M5.3165 7.32306L5.46888 7.79245H5.9623L5.56313 8.08252L5.71551 8.55196L5.3165 8.26172L4.91733 8.55196L5.06971 8.08252L4.67041 7.79245H5.16395L5.3165 7.32306Z" fill="#EFEFEF"/>
<path id="Vector_45" d="M6.97422 1.52164L7.1266 1.9909H7.62002L7.22101 2.28114L7.37322 2.75024L6.97422 2.46034L6.57492 2.75024L6.72743 2.28114L6.32812 1.9909H6.82167L6.97422 1.52164Z" fill="#EFEFEF"/>
<path id="Vector_46" d="M6.97422 3.1792L7.1266 3.64846H7.62002L7.22101 3.9387L7.37322 4.4078L6.97422 4.1179L6.57492 4.4078L6.72743 3.9387L6.32812 3.64846H6.82167L6.97422 3.1792Z" fill="#EFEFEF"/>
<path id="Vector_47" d="M6.97422 4.83673L7.1266 5.306H7.62002L7.22101 5.5959L7.37322 6.06533L6.97422 5.77543L6.57492 6.06533L6.72743 5.5959L6.32812 5.306H6.82167L6.97422 4.83673Z" fill="#EFEFEF"/>
<path id="Vector_48" d="M6.97422 6.49438L7.1266 6.96382H7.62002L7.22101 7.25355L7.37322 7.72299L6.97422 7.43279L6.57492 7.72299L6.72743 7.25355L6.32812 6.96382H6.82167L6.97422 6.49438Z" fill="#EFEFEF"/>
<path id="Vector_49" d="M8.63144 0.692993L8.78383 1.16226H9.27724L8.87807 1.45216L9.03045 1.92159L8.63144 1.63135L8.23214 1.92159L8.38465 1.45216L7.98535 1.16226H8.47877L8.63144 0.692993Z" fill="#EFEFEF"/>
<path id="Vector_50" d="M8.63144 2.35056L8.78383 2.81953H9.27724L8.87807 3.10972L9.03045 3.57916L8.63144 3.28892L8.23214 3.57916L8.38465 3.10972L7.98535 2.81953H8.47877L8.63144 2.35056Z" fill="#EFEFEF"/>
<path id="Vector_51" d="M8.63144 4.00815L8.78383 4.47712H9.27724L8.87807 4.76731L9.03045 5.23675L8.63144 4.94651L8.23214 5.23675L8.38465 4.76731L7.98535 4.47712H8.47877L8.63144 4.00815Z" fill="#EFEFEF"/>
<path id="Vector_52" d="M8.63144 5.66577L8.78383 6.13487H9.27724L8.87807 6.42494L9.03045 6.89437L8.63144 6.60413L8.23214 6.89437L8.38465 6.42494L7.98535 6.13487H8.47877L8.63144 5.66577Z" fill="#EFEFEF"/>
<path id="Vector_53" d="M8.63144 7.32306L8.78383 7.79245H9.27724L8.87807 8.08252L9.03045 8.55196L8.63144 8.26172L8.23214 8.55196L8.38465 8.08252L7.98535 7.79245H8.47877L8.63144 7.32306Z" fill="#EFEFEF"/>
</g>
</g>
<defs>
<clipPath id="clip0_258_4601">
<rect width="20" height="20" fill="white"/>
</clipPath>
</defs>
</svg>
