<svg width="18" height="19" viewBox="0 0 18 19" fill="none" xmlns="http://www.w3.org/2000/svg">
<g id="vuesax/linear/building-4">
<g id="vuesax/linear/building-4_2">
<g id="building-4">
<path id="Vector" d="M0.75 16.5014H17.25" stroke="#7A63EC" stroke-width="1.5" stroke-miterlimit="10" stroke-linecap="round" stroke-linejoin="round"/>
<path id="Vector_2" d="M14.835 16.5089V13.1639" stroke="#7A63EC" stroke-width="1.5" stroke-miterlimit="10" stroke-linecap="round" stroke-linejoin="round"/>
<path id="Vector_3" d="M14.85 8.16888C13.935 8.16888 13.2 8.90389 13.2 9.81889V11.5214C13.2 12.4364 13.935 13.1714 14.85 13.1714C15.765 13.1714 16.5 12.4364 16.5 11.5214V9.81889C16.5 8.90389 15.765 8.16888 14.85 8.16888Z" stroke="#7A63EC" stroke-width="1.5" stroke-miterlimit="10" stroke-linecap="round" stroke-linejoin="round"/>
<path id="Vector_4" d="M1.57501 16.5014V4.52393C1.57501 3.01643 2.32505 2.25891 3.81755 2.25891H8.49004C9.98254 2.25891 10.725 3.01643 10.725 4.52393V16.5014" stroke="#7A63EC" stroke-width="1.5" stroke-miterlimit="10" stroke-linecap="round" stroke-linejoin="round"/>
<path id="Vector_5" d="M4.34998 6.1889H8.06248" stroke="#7A63EC" stroke-width="1.5" stroke-miterlimit="10" stroke-linecap="round" stroke-linejoin="round"/>
<path id="Vector_6" d="M4.34998 9.0014H8.06248" stroke="#7A63EC" stroke-width="1.5" stroke-miterlimit="10" stroke-linecap="round" stroke-linejoin="round"/>
<path id="Vector_7" d="M6.1875 16.5014V13.6889" stroke="#7A63EC" stroke-width="1.5" stroke-miterlimit="10" stroke-linecap="round" stroke-linejoin="round"/>
</g>
</g>
</g>
</svg>
