<svg width="20" height="20" viewBox="0 0 20 20" fill="none" xmlns="http://www.w3.org/2000/svg">
<g id="vuesax/linear/buildings">
<g id="vuesax/linear/buildings_2">
<g id="buildings">
<path id="Vector" d="M10.8332 18.3333H4.1665C2.49984 18.3333 1.6665 17.5 1.6665 15.8333V9.16666C1.6665 7.49999 2.49984 6.66666 4.1665 6.66666H8.33317V15.8333C8.33317 17.5 9.1665 18.3333 10.8332 18.3333Z" stroke="#888AA0" stroke-width="1.5" stroke-miterlimit="10" stroke-linecap="round" stroke-linejoin="round"/>
<path id="Vector_2" d="M8.42483 3.33334C8.35816 3.58334 8.33317 3.85834 8.33317 4.16668V6.66668H4.1665V5.00001C4.1665 4.08334 4.9165 3.33334 5.83317 3.33334H8.42483Z" stroke="#888AA0" stroke-width="1.5" stroke-miterlimit="10" stroke-linecap="round" stroke-linejoin="round"/>
<path id="Vector_3" d="M11.6665 6.66666V10.8333" stroke="#888AA0" stroke-width="1.5" stroke-miterlimit="10" stroke-linecap="round" stroke-linejoin="round"/>
<path id="Vector_4" d="M15 6.66666V10.8333" stroke="#888AA0" stroke-width="1.5" stroke-miterlimit="10" stroke-linecap="round" stroke-linejoin="round"/>
<path id="Vector_5" d="M14.1665 14.1667H12.4998C12.0415 14.1667 11.6665 14.5417 11.6665 15V18.3333H14.9998V15C14.9998 14.5417 14.6248 14.1667 14.1665 14.1667Z" stroke="#888AA0" stroke-width="1.5" stroke-miterlimit="10" stroke-linecap="round" stroke-linejoin="round"/>
<path id="Vector_6" d="M5 10.8333V14.1667" stroke="#888AA0" stroke-width="1.5" stroke-miterlimit="10" stroke-linecap="round" stroke-linejoin="round"/>
<path id="Vector_7" d="M8.3335 15.8333V4.16666C8.3335 2.49999 9.16683 1.66666 10.8335 1.66666H15.8335C17.5002 1.66666 18.3335 2.49999 18.3335 4.16666V15.8333C18.3335 17.5 17.5002 18.3333 15.8335 18.3333H10.8335C9.16683 18.3333 8.3335 17.5 8.3335 15.8333Z" stroke="#888AA0" stroke-width="1.5" stroke-miterlimit="10" stroke-linecap="round" stroke-linejoin="round"/>
</g>
</g>
</g>
</svg>
