<svg width="20" height="20" viewBox="0 0 20 20" fill="none" xmlns="http://www.w3.org/2000/svg">
<g id="vuesax/linear/card-edit">
<g id="vuesax/linear/card-edit_2">
<g id="card-edit">
<path id="Vector" d="M1.66357 7.08334H9.58024" stroke="#888AA0" stroke-width="1.5" stroke-miterlimit="10" stroke-linecap="round" stroke-linejoin="round"/>
<path id="Vector_2" d="M4.99658 13.75H6.66325" stroke="#888AA0" stroke-width="1.5" stroke-miterlimit="10" stroke-linecap="round" stroke-linejoin="round"/>
<path id="Vector_3" d="M8.74658 13.75H12.0799" stroke="#888AA0" stroke-width="1.5" stroke-miterlimit="10" stroke-linecap="round" stroke-linejoin="round"/>
<path id="Vector_4" d="M18.3302 10.025V13.425C18.3302 16.35 17.5886 17.0833 14.6302 17.0833H5.36357C2.40524 17.0833 1.66357 16.35 1.66357 13.425V6.57499C1.66357 3.64999 2.40524 2.91666 5.36357 2.91666H12.0802" stroke="#888AA0" stroke-width="1.5" stroke-linecap="round" stroke-linejoin="round"/>
<path id="Vector_5" d="M15.897 3.44166L12.8053 6.53332C12.6886 6.64999 12.572 6.88332 12.547 7.04999L12.3803 8.23332C12.322 8.65832 12.622 8.95832 13.047 8.89999L14.2303 8.73332C14.397 8.70832 14.6303 8.59166 14.747 8.47499L17.8386 5.38332C18.372 4.84999 18.622 4.23332 17.8386 3.44999C17.047 2.65832 16.4303 2.90832 15.897 3.44166Z" stroke="#888AA0" stroke-width="1.5" stroke-miterlimit="10" stroke-linecap="round" stroke-linejoin="round"/>
<path id="Vector_6" d="M15.4551 3.88336C15.7217 4.82503 16.4551 5.55836 17.3884 5.81669" stroke="#888AA0" stroke-width="1.5" stroke-miterlimit="10" stroke-linecap="round" stroke-linejoin="round"/>
</g>
</g>
</g>
</svg>
