<svg width="20" height="20" viewBox="0 0 20 20" fill="none" xmlns="http://www.w3.org/2000/svg">
<rect opacity="0.01" width="20" height="20" fill="white"/>
<path fill-rule="evenodd" clip-rule="evenodd" d="M10.0098 8.60131L9.78862 8.36567L6.03036 4.36017C5.62429 3.9701 5.00449 3.96766 4.62828 4.34499C4.25233 4.72207 4.2646 5.33539 4.66868 5.7234L8.6477 9.96611L8.43437 10.1801L4.33637 14.291C3.9603 14.6682 3.97282 15.2834 4.36602 15.6584C4.75573 16.0321 5.37553 16.0301 5.74961 15.6549L9.99259 11.4001L10.2136 11.6356L13.9726 15.6403C14.3763 16.0301 14.9982 16.0323 15.3739 15.6534C15.7486 15.2796 15.736 14.6645 15.3321 14.2766L11.3515 10.0353L11.5648 9.82126L15.6627 5.70892C16.039 5.33135 16.0275 4.71803 15.6355 4.34229C15.2451 3.9679 14.6253 3.96969 14.2512 4.34496L10.0098 8.60131Z" fill="white"/>
</svg>
