<svg width="32" height="32" viewBox="0 0 32 32" fill="none" xmlns="http://www.w3.org/2000/svg">
<g id="devices">
<path id="Vector" d="M22.6799 16.9734C23.4678 16.9734 24.1065 16.3346 24.1065 15.5467C24.1065 14.7588 23.4678 14.1201 22.6799 14.1201C21.892 14.1201 21.2532 14.7588 21.2532 15.5467C21.2532 16.3346 21.892 16.9734 22.6799 16.9734Z" stroke="#8F91B3" stroke-width="1.5" stroke-linecap="round" stroke-linejoin="round"/>
<path id="Vector_2" d="M26.6667 8.00033V10.387C26.3334 10.347 25.9467 10.3203 25.5333 10.3203H19.8267C16.9733 10.3203 16.0267 11.267 16.0267 14.1204V20.9337H8.00002C3.73335 20.9337 2.66669 19.867 2.66669 15.6003V8.00033C2.66669 3.73366 3.73335 2.66699 8.00002 2.66699H21.3334C25.6 2.66699 26.6667 3.73366 26.6667 8.00033Z" stroke="#8F91B3" stroke-width="1.5" stroke-linecap="round" stroke-linejoin="round"/>
<path id="Vector_3" d="M12 20.9326V26.6659" stroke="#8F91B3" stroke-width="1.5" stroke-linecap="round" stroke-linejoin="round"/>
<path id="Vector_4" d="M2.66669 15.8662H16" stroke="#8F91B3" stroke-width="1.5" stroke-linecap="round" stroke-linejoin="round"/>
<path id="Vector_5" d="M7.93359 26.667H16.0002" stroke="#8F91B3" stroke-width="1.5" stroke-linecap="round" stroke-linejoin="round"/>
<g id="Group">
<path id="Vector_6" d="M22.6803 16.9724C23.4683 16.9724 24.107 16.3337 24.107 15.5457C24.107 14.7578 23.4683 14.1191 22.6803 14.1191C21.8924 14.1191 21.2537 14.7578 21.2537 15.5457C21.2537 16.3337 21.8924 16.9724 22.6803 16.9724Z" stroke="#8F91B3" stroke-width="1.5" stroke-miterlimit="10" stroke-linecap="round" stroke-linejoin="round"/>
<path id="Vector_7" d="M26.6667 10.386C26.3334 10.346 25.9467 10.3193 25.5333 10.3193H19.8267C16.9733 10.3193 16.0267 11.2661 16.0267 14.1194V25.5327C16.0267 28.386 16.9733 29.3327 19.8267 29.3327H25.5333C28.3867 29.3327 29.3334 28.386 29.3334 25.5327V14.1194C29.3334 11.6794 28.64 10.6393 26.6667 10.386ZM22.68 14.1194C23.4667 14.1194 24.1067 14.7593 24.1067 15.546C24.1067 16.3326 23.4667 16.9727 22.68 16.9727C21.8934 16.9727 21.2534 16.3326 21.2534 15.546C21.2534 14.7593 21.8934 14.1194 22.68 14.1194ZM22.68 25.5327C21.1067 25.5327 19.8267 24.2527 19.8267 22.6794C19.8267 22.026 20.0534 21.4127 20.4267 20.9327C20.9467 20.266 21.76 19.826 22.68 19.826C23.4 19.826 24.0534 20.0927 24.5467 20.5194C25.1467 21.0527 25.5333 21.826 25.5333 22.6794C25.5333 24.2527 24.2534 25.5327 22.68 25.5327Z" stroke="#8F91B3" stroke-width="1.5" stroke-miterlimit="10" stroke-linecap="round" stroke-linejoin="round"/>
<path id="Vector_8" d="M25.5339 22.6795C25.5339 24.2529 24.2539 25.5329 22.6806 25.5329C21.1072 25.5329 19.8272 24.2529 19.8272 22.6795C19.8272 22.0262 20.0539 21.4129 20.4272 20.9329C20.9472 20.2662 21.7606 19.8262 22.6806 19.8262C23.4006 19.8262 24.0539 20.0929 24.5472 20.5195C25.1472 21.0529 25.5339 21.8262 25.5339 22.6795Z" stroke="#8F91B3" stroke-width="1.5" stroke-miterlimit="10" stroke-linecap="round" stroke-linejoin="round"/>
<path id="Vector_9" d="M22.6803 16.9724C23.4683 16.9724 24.107 16.3337 24.107 15.5457C24.107 14.7578 23.4683 14.1191 22.6803 14.1191C21.8924 14.1191 21.2537 14.7578 21.2537 15.5457C21.2537 16.3337 21.8924 16.9724 22.6803 16.9724Z" stroke="#8F91B3" stroke-width="1.5" stroke-miterlimit="10" stroke-linecap="round" stroke-linejoin="round"/>
</g>
</g>
</svg>
