<svg width="16" height="16" viewBox="0 0 16 16" fill="none" xmlns="http://www.w3.org/2000/svg">
<g id="Heart">
<g id="Heart_2">
<path fill-rule="evenodd" clip-rule="evenodd" d="M10.8874 0.875486C11.3606 0.875486 11.8331 0.942236 12.2824 1.09299C15.0506 1.99299 16.0481 5.03049 15.2149 7.68549C14.7424 9.04224 13.9699 10.2805 12.9581 11.2922C11.5099 12.6947 9.92064 13.9397 8.20989 15.0122L8.02239 15.1255L7.82739 15.0047C6.11064 13.9397 4.51239 12.6947 3.05064 11.2847C2.04564 10.273 1.27239 9.04224 0.79239 7.68549C-0.0551097 5.03049 0.942391 1.99299 3.74064 1.07724C3.95814 1.00224 4.18239 0.949736 4.40739 0.920486H4.49739C4.70814 0.889736 4.91739 0.875486 5.12739 0.875486H5.20989C5.68239 0.889736 6.13989 0.972236 6.58314 1.12299H6.62739C6.65739 1.13724 6.67989 1.15299 6.69489 1.16724C6.86064 1.22049 7.01739 1.28049 7.16739 1.36299L7.45239 1.49049C7.52126 1.52722 7.59856 1.58334 7.66536 1.63184C7.70769 1.66257 7.7458 1.69024 7.77489 1.70799C7.78713 1.71521 7.79957 1.72247 7.81211 1.72979C7.87642 1.76733 7.94341 1.80643 7.99989 1.84974C8.83314 1.21299 9.84489 0.867986 10.8874 0.875486ZM12.8824 6.27549C13.1899 6.26724 13.4524 6.02049 13.4749 5.70474V5.61549C13.4974 4.56474 12.8606 3.61299 11.8924 3.24549C11.5849 3.13974 11.2474 3.30549 11.1349 3.62049C11.0299 3.93549 11.1949 4.28049 11.5099 4.39224C11.9906 4.57224 12.3124 5.04549 12.3124 5.56974V5.59299C12.2981 5.76474 12.3499 5.93049 12.4549 6.05799C12.5599 6.18549 12.7174 6.25974 12.8824 6.27549Z" fill="#7A63EC"/>
<path d="M12.2824 1.09299L12.1551 1.47222L12.1587 1.47339L12.2824 1.09299ZM10.8874 0.875486L10.8845 1.27549H10.8874V0.875486ZM15.2149 7.68549L15.5928 7.8171L15.5965 7.80526L15.2149 7.68549ZM12.9581 11.2922L13.2364 11.5796L13.241 11.5751L12.9581 11.2922ZM8.20989 15.0122L8.41672 15.3547L8.42236 15.3511L8.20989 15.0122ZM8.02239 15.1255L7.8118 15.4656L8.01979 15.5944L8.2292 15.4679L8.02239 15.1255ZM7.82739 15.0047L7.61653 15.3446L7.6168 15.3448L7.82739 15.0047ZM3.05064 11.2847L2.76679 11.5667L2.77294 11.5726L3.05064 11.2847ZM0.79239 7.68549L0.411149 7.80718L0.415294 7.8189L0.79239 7.68549ZM3.74064 1.07724L3.86507 1.45744L3.87104 1.45539L3.74064 1.07724ZM4.40739 0.920486V0.520486H4.3815L4.35582 0.523824L4.40739 0.920486ZM4.49739 0.920486V1.32049H4.52642L4.55514 1.31629L4.49739 0.920486ZM5.20989 0.875486L5.22195 0.475486H5.20989V0.875486ZM6.58314 1.12299L6.45434 1.50168L6.51698 1.52299H6.58314V1.12299ZM6.62739 1.12299L6.79901 0.761674L6.71756 0.722986H6.62739V1.12299ZM6.69489 1.16724L6.41939 1.45723L6.4856 1.52013L6.57254 1.54807L6.69489 1.16724ZM7.16739 1.36299L6.97462 1.71347L6.98903 1.7214L7.00404 1.72811L7.16739 1.36299ZM7.45239 1.49049L7.64063 1.13754L7.62839 1.13102L7.61574 1.12536L7.45239 1.49049ZM7.66536 1.63184L7.43036 1.95552V1.95553L7.66536 1.63184ZM7.77489 1.70799L7.56656 2.0495L7.57163 2.0525L7.77489 1.70799ZM7.81211 1.72979L7.61046 2.07524L7.61046 2.07524L7.81211 1.72979ZM7.99989 1.84974L7.75652 2.16718L7.99949 2.35346L8.24276 2.16756L7.99989 1.84974ZM13.4749 5.70474L13.8739 5.73317L13.8749 5.71897V5.70474H13.4749ZM12.8824 6.27549L12.8444 6.67368L12.8687 6.676L12.8931 6.67534L12.8824 6.27549ZM13.4749 5.61549L13.0749 5.60692V5.61549H13.4749ZM11.8924 3.24549L12.0344 2.87133L12.0225 2.86723L11.8924 3.24549ZM11.1349 3.62049L10.7581 3.48592L10.7554 3.49399L11.1349 3.62049ZM11.5099 4.39224L11.6502 4.01758L11.6436 4.01526L11.5099 4.39224ZM12.3124 5.59299L12.711 5.62606L12.7124 5.60955V5.59299H12.3124ZM12.4549 6.05799L12.7637 5.8037L12.7637 5.8037L12.4549 6.05799ZM12.4096 0.713767C11.914 0.547454 11.3979 0.475486 10.8874 0.475486V1.27549C11.3234 1.27549 11.7523 1.33702 12.1551 1.47221L12.4096 0.713767ZM15.5965 7.80526C16.4747 5.00728 15.4433 1.70003 12.4061 0.712585L12.1587 1.47339C14.658 2.28594 15.6216 5.05369 14.8332 7.56571L15.5965 7.80526ZM13.241 11.5751C14.2959 10.5201 15.1006 9.22995 15.5926 7.81704L14.8371 7.55393C14.3842 8.85452 13.6438 10.0409 12.6753 11.0094L13.241 11.5751ZM8.42236 15.3511C10.1567 14.2638 11.768 13.0016 13.2364 11.5796L12.6799 11.0049C11.2517 12.3879 9.68455 13.6156 7.99742 14.6733L8.42236 15.3511ZM8.2292 15.4679L8.4167 15.3546L8.00309 14.6698L7.81559 14.7831L8.2292 15.4679ZM7.6168 15.3448L7.8118 15.4656L8.23298 14.7854L8.03798 14.6647L7.6168 15.3448ZM2.77294 11.5726C4.25492 13.0021 5.87555 14.2646 7.61653 15.3446L8.03825 14.6648C6.34573 13.6149 4.76986 12.3873 3.32834 10.9968L2.77294 11.5726ZM0.415294 7.8189C0.91493 9.23115 1.71994 10.5127 2.76685 11.5666L3.33443 11.0028C2.37134 10.0333 1.62985 8.85332 1.16949 7.55207L0.415294 7.8189ZM3.61623 0.697075C0.551408 1.70006 -0.482897 5.00573 0.411333 7.80712L1.17345 7.56385C0.372678 5.05524 1.33337 2.28591 3.86505 1.4574L3.61623 0.697075ZM4.35582 0.523824C4.10399 0.556562 3.85333 0.615265 3.61024 0.699087L3.87104 1.45539C4.06295 1.38921 4.26079 1.34291 4.45896 1.31715L4.35582 0.523824ZM4.49739 0.520486H4.40739V1.32049H4.49739V0.520486ZM5.12739 0.475486C4.89913 0.475486 4.67054 0.490987 4.43964 0.524677L4.55514 1.31629C4.74574 1.28848 4.93565 1.27549 5.12739 1.27549V0.475486ZM5.20989 0.475486H5.12739V1.27549H5.20989V0.475486ZM6.71194 0.744289C6.23071 0.580622 5.73384 0.491106 5.22195 0.475668L5.19783 1.2753C5.63094 1.28837 6.04907 1.36385 6.45434 1.50168L6.71194 0.744289ZM6.62739 0.722986H6.58314V1.52299H6.62739V0.722986ZM6.97039 0.877237C6.91965 0.829033 6.86027 0.790771 6.79901 0.761674L6.45577 1.4843C6.45432 1.48361 6.45055 1.48171 6.44489 1.47793C6.43949 1.47433 6.43049 1.46778 6.41939 1.45723L6.97039 0.877237ZM7.36016 1.0125C7.179 0.912862 6.99562 0.843715 6.81724 0.786407L6.57254 1.54807C6.72566 1.59726 6.85578 1.64811 6.97462 1.71347L7.36016 1.0125ZM7.61574 1.12536L7.33074 0.997859L7.00404 1.72811L7.28904 1.85561L7.61574 1.12536ZM7.90037 1.30815C7.8399 1.26425 7.73882 1.18992 7.64063 1.13754L7.26415 1.84343C7.30369 1.86451 7.35721 1.90242 7.43036 1.95552L7.90037 1.30815ZM7.98319 1.3665C7.97108 1.35912 7.94819 1.34287 7.90037 1.30815L7.43036 1.95553C7.46719 1.98227 7.52052 2.02137 7.56659 2.04947L7.98319 1.3665ZM8.01376 1.38434C8.00108 1.37694 7.98945 1.37014 7.97815 1.36348L7.57163 2.0525C7.58481 2.06027 7.59806 2.068 7.61046 2.07524L8.01376 1.38434ZM8.24326 1.53229C8.16312 1.47085 8.07323 1.41905 8.01376 1.38434L7.61046 2.07524C7.6796 2.1156 7.72369 2.14201 7.75652 2.16718L8.24326 1.53229ZM10.8903 0.475496C9.75699 0.467343 8.65918 0.842497 7.75702 1.53191L8.24276 2.16756C9.0071 1.58347 9.93279 1.26863 10.8845 1.27548L10.8903 0.475496ZM13.0759 5.6763C13.068 5.78663 12.9737 5.87289 12.8717 5.87563L12.8931 6.67534C13.4061 6.66158 13.8367 6.25435 13.8739 5.73317L13.0759 5.6763ZM13.0749 5.61549V5.70474H13.8749V5.61549H13.0749ZM11.7505 3.61945C12.5578 3.92588 13.0939 4.72259 13.075 5.60692L13.8748 5.62405C13.9009 4.40688 13.1635 3.30009 12.0343 2.87152L11.7505 3.61945ZM11.5116 3.75502C11.553 3.63893 11.6693 3.59177 11.7623 3.62374L12.0225 2.86723C11.5004 2.6877 10.9417 2.97205 10.7582 3.48595L11.5116 3.75502ZM11.6436 4.01526C11.5366 3.97728 11.4774 3.85784 11.5144 3.74698L10.7554 3.49399C10.5824 4.01313 10.8532 4.58369 11.3762 4.76922L11.6436 4.01526ZM12.7124 5.56974C12.7124 4.88414 12.2922 4.25802 11.6501 4.01763L11.3696 4.76684C11.6891 4.88645 11.9124 5.20683 11.9124 5.56974H12.7124ZM12.7124 5.59299V5.56974H11.9124V5.59299H12.7124ZM12.7637 5.8037C12.7265 5.75854 12.7052 5.69647 12.711 5.62606L11.9138 5.55991C11.8911 5.833 11.9733 6.10243 12.1461 6.31227L12.7637 5.8037ZM12.9204 5.8773C12.8458 5.87018 12.7919 5.83799 12.7637 5.8037L12.1461 6.31227C12.3279 6.53298 12.5889 6.64929 12.8444 6.67368L12.9204 5.8773Z" fill="#292B49"/>
</g>
</g>
</svg>
