<svg width="20" height="20" viewBox="0 0 20 20" fill="none" xmlns="http://www.w3.org/2000/svg">
<path d="M7.63101 17.3093V14.7537C7.63099 14.1037 8.16093 13.5755 8.81751 13.5712H11.2226C11.8823 13.5712 12.4171 14.1006 12.4171 14.7537V14.7537V17.3173C12.4169 17.8692 12.8619 18.3202 13.4192 18.3332H15.0226C16.6209 18.3332 17.9167 17.0504 17.9167 15.468V15.468V8.19803C17.9081 7.57553 17.6129 6.99096 17.115 6.6107L11.6314 2.23759C10.6708 1.47614 9.30517 1.47614 8.34451 2.23759L2.88502 6.61863C2.38521 6.99736 2.08948 7.58289 2.08333 8.20597V15.468C2.08333 17.0504 3.37906 18.3332 4.97742 18.3332H6.5808C7.15196 18.3332 7.61497 17.8748 7.61497 17.3093V17.3093" stroke="#8F91B3" stroke-width="1.5" stroke-linecap="round" stroke-linejoin="round"/>
</svg>
