<svg width="20" height="20" viewBox="0 0 20 20" fill="none" xmlns="http://www.w3.org/2000/svg">
<g id="vuesax/linear/house">
<g id="vuesax/linear/house_2">
<g id="house">
<path id="Vector" d="M1.6665 18.3333H18.3332" stroke="#888AA0" stroke-width="1.5" stroke-miterlimit="10" stroke-linecap="round" stroke-linejoin="round"/>
<path id="Vector_2" d="M2.4585 18.3333L2.50016 8.30827C2.50016 7.79994 2.74183 7.31665 3.14183 6.99998L8.97516 2.45831C9.57516 1.99164 10.4168 1.99164 11.0252 2.45831L16.8585 6.99164C17.2668 7.30831 17.5002 7.79161 17.5002 8.30827V18.3333" stroke="#888AA0" stroke-width="1.5" stroke-miterlimit="10" stroke-linejoin="round"/>
<path id="Vector_3" d="M10.8332 14.1667H9.1665C8.47484 14.1667 7.9165 14.725 7.9165 15.4167V18.3333H12.0832V15.4167C12.0832 14.725 11.5248 14.1667 10.8332 14.1667Z" stroke="#888AA0" stroke-width="1.5" stroke-miterlimit="10" stroke-linejoin="round"/>
<path id="Vector_4" d="M7.9165 11.4583H6.24984C5.7915 11.4583 5.4165 11.0833 5.4165 10.625V9.37499C5.4165 8.91666 5.7915 8.54166 6.24984 8.54166H7.9165C8.37484 8.54166 8.74984 8.91666 8.74984 9.37499V10.625C8.74984 11.0833 8.37484 11.4583 7.9165 11.4583Z" stroke="#888AA0" stroke-width="1.5" stroke-miterlimit="10" stroke-linejoin="round"/>
<path id="Vector_5" d="M13.75 11.4583H12.0833C11.625 11.4583 11.25 11.0833 11.25 10.625V9.37499C11.25 8.91666 11.625 8.54166 12.0833 8.54166H13.75C14.2083 8.54166 14.5833 8.91666 14.5833 9.37499V10.625C14.5833 11.0833 14.2083 11.4583 13.75 11.4583Z" stroke="#888AA0" stroke-width="1.5" stroke-miterlimit="10" stroke-linejoin="round"/>
<path id="Vector_6" d="M15.8333 5.83334L15.8083 3.33334H12.1416" stroke="#888AA0" stroke-width="1.5" stroke-miterlimit="10" stroke-linecap="round" stroke-linejoin="round"/>
</g>
</g>
</g>
</svg>
