<svg width="18" height="22" viewBox="0 0 18 22" fill="none" xmlns="http://www.w3.org/2000/svg">
<path opacity="0.4" d="M17.6201 7.45C16.5701 2.83 12.5401 0.75 9.0001 0.75C-nan -nan -nan -nan -nan -nanC-nan -nan -nan -nan 9.0001 0.75C9.0001 0.75 9.0001 0.75 8.9901 0.75C5.4601 0.75 1.4201 2.82 0.370095 7.44C-0.799905 12.6 2.3601 16.97 5.2201 19.72C6.2801 20.74 7.6401 21.25 9.0001 21.25C10.3601 21.25 11.7201 20.74 12.7701 19.72C15.6301 16.97 18.7901 12.61 17.6201 7.45Z" fill="url(#paint0_linear_1_19215)"/>
<path d="M8.99961 12.4602C10.7393 12.4602 12.1496 11.0499 12.1496 9.31016C12.1496 7.57046 10.7393 6.16016 8.99961 6.16016C7.25991 6.16016 5.84961 7.57046 5.84961 9.31016C5.84961 11.0499 7.25991 12.4602 8.99961 12.4602Z" fill="url(#paint1_linear_1_19215)"/>
<defs>
<linearGradient id="paint0_linear_1_19215" x1="-0.79985" y1="-10.1613" x2="34.8037" y2="-2.44856" gradientUnits="userSpaceOnUse">
<stop stop-color="#7A63EC"/>
<stop offset="1" stop-color="#7A63EC" stop-opacity="0"/>
</linearGradient>
<linearGradient id="paint1_linear_1_19215" x1="5.52309" y1="2.80693" x2="17.9735" y2="5.92192" gradientUnits="userSpaceOnUse">
<stop stop-color="#7A63EC"/>
<stop offset="1" stop-color="#7A63EC" stop-opacity="0"/>
</linearGradient>
</defs>
</svg>
