<svg width="20" height="20" viewBox="0 0 20 20" fill="none" xmlns="http://www.w3.org/2000/svg">
<path d="M7.08335 15.8334H6.66669C3.33335 15.8334 1.66669 15.0001 1.66669 10.8334V6.66675C1.66669 3.33341 3.33335 1.66675 6.66669 1.66675H13.3334C16.6667 1.66675 18.3334 3.33341 18.3334 6.66675V10.8334C18.3334 14.1667 16.6667 15.8334 13.3334 15.8334H12.9167C12.6584 15.8334 12.4084 15.9584 12.25 16.1667L11 17.8334C10.45 18.5667 9.55002 18.5667 9.00002 17.8334L7.75002 16.1667C7.61669 15.9834 7.30835 15.8334 7.08335 15.8334Z" stroke="#8F91B3" stroke-width="1.5" stroke-miterlimit="10" stroke-linecap="round" stroke-linejoin="round"/>
<path d="M5.83331 6.66675H14.1666" stroke="#8F91B3" stroke-width="1.5" stroke-linecap="round" stroke-linejoin="round"/>
<path d="M5.83331 10.8333H10.8333" stroke="#8F91B3" stroke-width="1.5" stroke-linecap="round" stroke-linejoin="round"/>
</svg>
