<svg width="20" height="20" viewBox="0 0 20 20" fill="none" xmlns="http://www.w3.org/2000/svg">
<g id="vuesax/linear/route-square">
<g id="vuesax/linear/route-square_2">
<g id="route-square">
<g id="Group">
<path id="Vector" d="M14.4583 7.54168L12.5083 13.825C12.0416 15.3167 9.94998 15.3417 9.45831 13.8583L8.87498 12.1333C8.71665 11.6583 8.34164 11.275 7.86664 11.125L6.13331 10.5417C4.65831 10.05 4.68331 7.94168 6.17498 7.49168L12.4583 5.53334C13.6916 5.15834 14.85 6.31668 14.4583 7.54168Z" stroke="#888AA0" stroke-width="1.5" stroke-linecap="round" stroke-linejoin="round"/>
</g>
<path id="Vector_2" d="M7.49984 18.3333H12.4998C16.6665 18.3333 18.3332 16.6667 18.3332 12.5V7.49999C18.3332 3.33332 16.6665 1.66666 12.4998 1.66666H7.49984C3.33317 1.66666 1.6665 3.33332 1.6665 7.49999V12.5C1.6665 16.6667 3.33317 18.3333 7.49984 18.3333Z" stroke="#888AA0" stroke-width="1.5" stroke-linecap="round" stroke-linejoin="round"/>
</g>
</g>
</g>
</svg>
