<svg width="414" height="90" viewBox="0 0 414 90" fill="none" xmlns="http://www.w3.org/2000/svg">
<g id="Vector 1789" filter="url(#filter0_bd_1202_2900)">
<path d="M134.315 12.566C98.2923 13.2123 64.5236 8.87361 38.9592 3.8535C24.1069 0.936924 16.6807 -0.521363 12.0736 1.0851C7.71853 2.60364 4.79337 5.01025 2.46411 8.99105C0 13.2023 0 20.2061 0 34.2137V61.2C0 71.2809 0 76.3214 1.96188 80.1718C3.6876 83.5587 6.44125 86.3124 9.82817 88.0381C13.6786 90 18.719 90 28.8 90H385.2C395.281 90 400.321 90 404.172 88.0381C407.559 86.3124 410.312 83.5587 412.038 80.1718C414 76.3214 414 71.2809 414 61.2V44.5041C414 25.978 414 16.7149 411.688 12.6052C409.174 8.13571 407.367 6.56139 402.596 4.68226C398.208 2.95441 387.345 4.45477 365.617 7.45547C333.179 11.9354 296.791 12.1132 281.896 12.1132C258.128 12.1132 253.706 14.8302 253.706 22.5283C253.706 30.2264 258.761 51.2182 229.386 54.2264C171.901 60.1132 160.676 44.2642 159.741 34.3019C158.636 22.5283 161.399 12.566 134.315 12.566Z" fill="white" fill-opacity="0.5" style="mix-blend-mode:overlay"/>
<path d="M38.8221 4.55195C64.4216 9.57898 98.2393 13.9246 134.321 13.2778C147.841 13.2786 153.58 15.7814 156.191 19.4328C157.506 21.2728 158.09 23.484 158.404 26.0259C158.561 27.2957 158.648 28.6302 158.731 30.0298C158.741 30.1968 158.751 30.3647 158.761 30.5335C158.834 31.7731 158.909 33.0597 159.032 34.3684C159.526 39.6238 162.742 46.2899 173.07 50.8585C183.345 55.4039 200.668 57.8828 229.458 54.9345C236.884 54.174 242.2 52.2706 245.982 49.6738C249.772 47.0707 251.981 43.7986 253.23 40.3805C254.475 36.9752 254.764 33.4405 254.749 30.3023C254.741 28.7319 254.657 27.2514 254.577 25.9335C254.569 25.8045 254.561 25.6773 254.553 25.5519C254.481 24.385 254.418 23.3722 254.418 22.5283C254.418 20.6625 254.688 19.1952 255.382 18.014C256.068 16.8465 257.22 15.8731 259.154 15.0942C263.083 13.512 269.993 12.825 281.896 12.825C296.791 12.825 333.223 12.6478 365.715 8.16058C376.586 6.65914 384.713 5.53692 390.672 5.00463C393.651 4.73856 396.068 4.62188 398.002 4.67618C399.946 4.73073 401.351 4.95716 402.335 5.34455C404.691 6.27228 406.248 7.09995 407.521 8.20899C408.794 9.31803 409.827 10.7476 411.068 12.9542C412.133 14.8482 412.711 18.0349 413 23.1884C413.288 28.3088 413.288 35.232 413.288 44.5041V61.2C413.288 66.2522 413.288 69.9986 413.045 72.9644C412.804 75.9219 412.325 78.0405 411.404 79.8487C409.746 83.1017 407.102 85.7464 403.849 87.4039C402.041 88.3252 399.922 88.8037 396.964 89.0453C393.999 89.2877 390.252 89.2882 385.2 89.2882H28.8C23.7478 89.2882 20.0014 89.2877 17.0356 89.0453C14.0781 88.8037 11.9595 88.3252 10.1513 87.4039C6.89833 85.7464 4.25357 83.1017 2.5961 79.8487C1.6748 78.0405 1.1963 75.9219 0.954666 72.9644C0.712348 69.9986 0.711794 66.2522 0.711794 61.2V34.2137C0.711794 27.1982 0.712291 21.9777 1.01774 17.983C1.3236 13.9828 1.93045 11.3125 3.07846 9.35052C5.32225 5.5158 8.11269 3.22003 12.3079 1.7572C14.4482 1.0109 17.3178 0.95366 21.5874 1.47961C25.8451 2.0041 31.3851 3.09154 38.8221 4.55195Z" stroke="white" stroke-opacity="0.5" stroke-width="1.42359"/>
</g>
<defs>
<filter id="filter0_bd_1202_2900" x="-56.9435" y="-56.5224" width="527.887" height="203.466" filterUnits="userSpaceOnUse" color-interpolation-filters="sRGB">
<feFlood flood-opacity="0" result="BackgroundImageFix"/>
<feGaussianBlur in="BackgroundImageFix" stdDeviation="28.4718"/>
<feComposite in2="SourceAlpha" operator="in" result="effect1_backgroundBlur_1202_2900"/>
<feColorMatrix in="SourceAlpha" type="matrix" values="0 0 0 0 0 0 0 0 0 0 0 0 0 0 0 0 0 0 127 0" result="hardAlpha"/>
<feOffset dy="28.4718"/>
<feGaussianBlur stdDeviation="14.2359"/>
<feColorMatrix type="matrix" values="0 0 0 0 0.269263 0 0 0 0 0.166562 0 0 0 0 0.4875 0 0 0 0.1 0"/>
<feBlend mode="normal" in2="effect1_backgroundBlur_1202_2900" result="effect2_dropShadow_1202_2900"/>
<feBlend mode="normal" in="SourceGraphic" in2="effect2_dropShadow_1202_2900" result="shape"/>
</filter>
</defs>
</svg>
