<svg width="220" height="220" viewBox="0 0 220 220" fill="none" xmlns="http://www.w3.org/2000/svg">
<path d="M110.007 209.697C163.748 209.697 207.313 165.598 207.313 111.2C207.313 56.8014 163.748 12.7026 110.007 12.7026C56.2672 12.7026 12.7021 56.8014 12.7021 111.2C12.7021 165.598 56.2672 209.697 110.007 209.697Z" fill="#B5ACDF"/>
<path d="M204.638 125.362C213.122 73.0945 177.629 23.8458 125.362 15.3617C73.0948 6.8775 23.8461 42.3706 15.3619 94.6378C6.87777 146.905 42.3709 196.154 94.6381 204.638C146.905 213.122 196.154 177.629 204.638 125.362Z" fill="#EAEEF9"/>
<path d="M118.706 198.069C167.346 193.265 202.881 149.941 198.078 101.302C193.275 52.6631 149.951 17.1272 101.312 21.9306C52.6725 26.734 17.1366 70.0578 21.94 118.697C26.7434 167.336 70.0672 202.872 118.706 198.069Z" fill="#B5ACDF"/>
<path d="M195.021 127.469C204.668 80.514 174.424 34.6287 127.469 24.9816C80.5136 15.3345 34.6283 45.5788 24.9813 92.5341C15.3342 139.489 45.5785 185.375 92.5337 195.022C139.489 204.669 185.374 174.425 195.021 127.469Z" fill="#FF4958"/>
<path d="M195.021 127.469C204.668 80.5135 174.424 34.6282 127.469 24.9811C80.5136 15.334 34.6283 45.5783 24.9813 92.5336C15.3342 139.489 45.5785 185.374 92.5337 195.021C139.489 204.668 185.374 174.424 195.021 127.469Z" fill="#B5ACDF"/>
<path d="M123.71 161.072C122.69 161.072 121.711 160.666 120.989 159.945C120.267 159.223 119.861 158.244 119.861 157.223V121.209C119.861 119.607 119.497 117.624 118.806 116.951C116.904 115.131 113.347 113.921 109.852 113.921C105.776 113.921 102.309 115.467 100.69 117.005C99.98 117.669 99.6069 119.635 99.6069 121.227V157.223C99.6069 158.244 99.2014 159.223 98.4796 159.945C97.7578 160.666 96.7788 161.072 95.758 161.072H70.5445C69.5238 161.072 68.5448 160.666 67.823 159.945C67.1011 159.223 66.6956 158.244 66.6956 157.223V117.187C66.6956 116.972 66.6532 116.76 66.5708 116.562C66.4884 116.363 66.3676 116.184 66.2154 116.032C66.0632 115.881 65.8825 115.761 65.6839 115.68C65.4852 115.598 65.2725 115.557 65.0578 115.558H50.1899C48.5612 115.558 47.9971 114.767 47.7969 114.303C47.5967 113.839 47.4511 112.883 48.5976 111.719L107.086 52.6657C107.443 52.3047 107.869 52.0182 108.337 51.8226C108.806 51.6271 109.308 51.5264 109.816 51.5264C110.324 51.5264 110.826 51.6271 111.295 51.8226C111.764 52.0182 112.189 52.3047 112.546 52.6657C112.546 52.6657 127.523 67.7519 127.541 67.7519V55.823C127.541 54.8038 127.945 53.8262 128.665 53.1047C129.385 52.3831 130.362 51.9766 131.381 51.9741H133.574C134.595 51.9741 135.574 52.3796 136.295 53.1015C137.017 53.8233 137.423 54.8022 137.423 55.823V75.3496C137.517 76.7921 138.083 78.1636 139.033 79.2531L171.417 111.755C172.563 112.911 172.408 113.866 172.217 114.33C172.026 114.794 171.453 115.586 169.824 115.586H154.401C154.188 115.586 153.976 115.628 153.778 115.71C153.581 115.791 153.401 115.911 153.25 116.063C153.099 116.214 152.979 116.393 152.897 116.591C152.815 116.789 152.773 117 152.773 117.214V157.25C152.773 157.756 152.673 158.256 152.48 158.723C152.286 159.19 152.003 159.614 151.645 159.972C151.288 160.329 150.864 160.613 150.397 160.806C149.93 161 149.429 161.099 148.924 161.099L123.71 161.072Z" fill="#B5ACDF"/>
<path d="M120.972 121.209C120.972 119.699 120.662 117.214 119.58 116.159C117.641 114.285 113.975 112.811 109.853 112.811C105.731 112.811 101.918 114.312 99.9256 116.195C98.8246 117.233 98.4971 119.717 98.4971 121.227V155.039H100.144V121.227C100.144 119.589 100.553 117.87 101.054 117.396C102.601 115.932 105.922 114.457 109.853 114.457C112.97 114.336 116.023 115.362 118.433 117.342C118.934 117.824 119.343 119.526 119.343 121.209V155.039H120.99L120.972 121.209Z" fill="url(#paint0_linear_2589_7629)"/>
<path d="M171.79 111.373L139.416 78.8711C138.559 77.8875 138.048 76.6509 137.96 75.3498V55.8232C137.957 54.6608 137.495 53.5466 136.673 52.7247C135.851 51.9027 134.736 51.4399 133.574 51.4375H131.381C130.22 51.4422 129.107 51.9058 128.285 52.7273C127.464 53.5487 127 54.6615 126.995 55.8232V66.4509L112.901 52.2837C112.496 51.8729 112.014 51.5467 111.482 51.3241C110.95 51.1015 110.379 50.9868 109.803 50.9868C109.226 50.9868 108.655 51.1015 108.123 51.3241C107.592 51.5467 107.109 51.8729 106.705 52.2837L48.2158 111.337C46.7964 112.765 47.1057 114.066 47.3059 114.503C47.5061 114.94 48.2158 116.086 50.1903 116.086H65.0582C65.3486 116.086 65.6273 116.201 65.8335 116.405C66.0397 116.61 66.1568 116.888 66.1592 117.178V157.214C66.1592 158.377 66.6212 159.493 67.4437 160.315C68.2662 161.138 69.3817 161.6 70.5449 161.6H95.7584C96.9216 161.6 98.0371 161.138 98.8596 160.315C99.6821 159.493 100.144 158.377 100.144 157.214V155.03H98.4972V157.214C98.4972 157.938 98.2096 158.632 97.6977 159.144C97.1858 159.656 96.4915 159.944 95.7675 159.944H70.5449C69.8209 159.944 69.1266 159.656 68.6147 159.144C68.1028 158.632 67.8152 157.938 67.8152 157.214V117.178C67.8152 116.454 67.5276 115.76 67.0157 115.248C66.5038 114.736 65.8094 114.448 65.0855 114.448H50.1903C48.6799 114.448 48.3159 113.539 49.3805 112.501L107.869 53.4483C108.123 53.1939 108.424 52.9919 108.756 52.8542C109.088 52.7164 109.444 52.6455 109.803 52.6455C110.162 52.6455 110.518 52.7164 110.85 52.8542C111.181 52.9919 111.483 53.1939 111.736 53.4483L126.713 68.4709C126.99 68.812 127.388 69.0336 127.823 69.0896C128.324 69.0896 128.642 68.5983 128.642 67.6702V55.8414C128.642 55.1174 128.93 54.4231 129.442 53.9112C129.954 53.3993 130.648 53.1117 131.372 53.1117H133.565C134.289 53.1117 134.983 53.3993 135.495 53.9112C136.007 54.4231 136.295 55.1174 136.295 55.8414V75.368C136.387 77.0966 137.064 78.7425 138.215 80.0358L170.589 112.529C171.663 113.602 171.299 114.476 169.788 114.476H154.402C153.678 114.476 152.984 114.763 152.472 115.275C151.96 115.787 151.672 116.481 151.672 117.205V157.241C151.672 157.965 151.384 158.66 150.873 159.171C150.361 159.683 149.666 159.971 148.942 159.971H123.711C122.987 159.971 122.292 159.683 121.78 159.171C121.269 158.66 120.981 157.965 120.981 157.241V155.058H119.334V157.241C119.336 158.404 119.799 159.518 120.621 160.34C121.443 161.162 122.557 161.625 123.72 161.627H148.933C150.096 161.627 151.212 161.165 152.034 160.342C152.857 159.52 153.319 158.404 153.319 157.241V117.205C153.319 116.916 153.434 116.638 153.639 116.433C153.844 116.229 154.121 116.114 154.411 116.114H169.834C171.845 116.114 172.564 115.003 172.718 114.53C172.873 114.057 173.219 112.801 171.79 111.373Z" fill="url(#paint1_linear_2589_7629)"/>
<defs>
<linearGradient id="paint0_linear_2589_7629" x1="109.734" y1="155.039" x2="109.734" y2="112.811" gradientUnits="userSpaceOnUse">
<stop stop-color="white"/>
<stop offset="0.82" stop-color="#FEFEFE"/>
<stop offset="0.9" stop-color="#080808"/>
<stop offset="1"/>
</linearGradient>
<linearGradient id="paint1_linear_2589_7629" x1="110.008" y1="161.609" x2="110.008" y2="51.0189" gradientUnits="userSpaceOnUse">
<stop stop-color="white"/>
<stop offset="0.04" stop-color="white"/>
<stop offset="0.39" stop-color="#FEFEFE"/>
<stop offset="0.42" stop-color="white"/>
<stop offset="0.47"/>
<stop offset="0.96" stop-color="#080808"/>
<stop offset="1"/>
</linearGradient>
</defs>
</svg>
