<svg width="20" height="20" viewBox="0 0 20 20" fill="none" xmlns="http://www.w3.org/2000/svg">
<path d="M19.5403 17.0398C19.3903 17.1898 19.2003 17.2598 19.0103 17.2598C18.8203 17.2598 18.6303 17.1898 18.4803 17.0398L14.0603 12.6198C13.7676 12.3271 13.7676 11.8525 14.0603 11.5598V11.5598V11.5598C14.353 11.2671 14.8276 11.2671 15.1203 11.5598L19.5403 15.9798C19.8303 16.2698 19.8303 16.7498 19.5403 17.0398Z" fill="url(#paint0_linear_147_6108)"/>
<path opacity="0.4" d="M5.47035 7.28009L11.2704 13.0801C11.6604 13.4701 11.6604 14.1001 11.2704 14.4901L10.3703 15.4001C9.56035 16.2001 8.28035 16.2001 7.48035 15.4001L3.14035 11.0601C2.35035 10.2701 2.35035 8.98008 3.14035 8.18008L4.05036 7.27009C4.44036 6.89009 5.08035 6.89009 5.47035 7.28009Z" fill="url(#paint1_linear_147_6108)"/>
<path d="M17.5895 8.18994L13.7795 11.9899C13.3795 12.3899 12.7395 12.3899 12.3395 11.9899L6.56953 6.21994C6.16953 5.81994 6.16953 5.17994 6.56953 4.77994L10.3795 0.969941C11.1695 0.179941 12.4595 0.179941 13.2595 0.969941L17.5995 5.30994C18.3795 6.09994 18.3795 7.37994 17.5895 8.18994Z" fill="url(#paint2_linear_147_6108)"/>
<path d="M7 19.75H1C0.59 19.75 0.25 19.41 0.25 19C0.25 18.59 0.59 18.25 1 18.25H7C7.41 18.25 7.75 18.59 7.75 19C7.75 19.41 7.41 19.75 7 19.75Z" fill="url(#paint3_linear_147_6108)"/>
<defs>
<linearGradient id="paint0_linear_147_6108" x1="13.2075" y1="7.71382" x2="25.5152" y2="10.7919" gradientUnits="userSpaceOnUse">
<stop stop-color="#7A63EC"/>
<stop offset="1" stop-color="#7A63EC" stop-opacity="0"/>
</linearGradient>
<linearGradient id="paint1_linear_147_6108" x1="2.08061" y1="2.18868" x2="19.8963" y2="6.64663" gradientUnits="userSpaceOnUse">
<stop stop-color="#7A63EC"/>
<stop offset="1" stop-color="#7A63EC" stop-opacity="0"/>
</linearGradient>
<linearGradient id="paint2_linear_147_6108" x1="5.65205" y1="-5.96309" x2="29.1964" y2="-0.0718738" gradientUnits="userSpaceOnUse">
<stop stop-color="#7A63EC"/>
<stop offset="1" stop-color="#7A63EC" stop-opacity="0"/>
</linearGradient>
<linearGradient id="paint3_linear_147_6108" x1="-0.138719" y1="17.4516" x2="6.0018" y2="25.1331" gradientUnits="userSpaceOnUse">
<stop stop-color="#7A63EC"/>
<stop offset="1" stop-color="#7A63EC" stop-opacity="0"/>
</linearGradient>
</defs>
</svg>
