<svg width="20" height="20" viewBox="0 0 20 20" fill="none" xmlns="http://www.w3.org/2000/svg">
<g id="Icons / Attachment">
<g id="paperclip">
<path id="Path" fill-rule="evenodd" clip-rule="evenodd" d="M15.9002 10.35L10.7502 15.5083C9.34864 16.7539 7.21909 16.6913 5.8932 15.3654C4.56731 14.0395 4.50462 11.9099 5.75022 10.5083L12.4169 3.84167C13.2435 3.05648 14.5403 3.05648 15.3669 3.84167C16.1738 4.65945 16.1738 5.97389 15.3669 6.79167L9.61689 12.5333C9.46208 12.7001 9.23007 12.7715 9.00828 12.7208C8.78648 12.6701 8.60859 12.5049 8.54161 12.2875C8.47463 12.0701 8.52874 11.8334 8.68356 11.6667L12.9586 7.40001C13.2853 7.07324 13.2853 6.54344 12.9586 6.21667C12.6318 5.8899 12.102 5.8899 11.7752 6.21667L7.50022 10.5C7.06817 10.9287 6.82515 11.5122 6.82515 12.1208C6.82515 12.7295 7.06817 13.313 7.50022 13.7417C8.40785 14.6062 9.83427 14.6062 10.7419 13.7417L16.4836 7.99167C17.8604 6.51412 17.8197 4.21162 16.3917 2.78356C14.9636 1.3555 12.6611 1.31488 11.1836 2.69167L4.51689 9.35834C2.64919 11.4269 2.74087 14.5992 4.72492 16.5565C6.70897 18.5137 9.88221 18.5623 11.9252 16.6667L17.0836 11.5167C17.2949 11.3053 17.3775 10.9972 17.3001 10.7084C17.2228 10.4197 16.9972 10.1941 16.7085 10.1168C16.4197 10.0394 16.1116 10.122 15.9002 10.3333V10.35Z" fill="#888AA0"/>
</g>
</g>
</svg>
