<svg width="20" height="20" viewBox="0 0 20 20" fill="none" xmlns="http://www.w3.org/2000/svg">
<g id="vuesax/bold/bag-tick-2">
<g id="vuesax/bold/bag-tick-2_2">
<g id="bag-tick-2">
<path id="Vector" d="M16.6333 7.46655C16.075 6.84988 15.2333 6.49155 14.0666 6.36655V5.73321C14.0666 4.59155 13.5833 3.49155 12.7333 2.72488C11.875 1.94155 10.7583 1.57488 9.59995 1.68321C7.60828 1.87488 5.93328 3.79988 5.93328 5.88321V6.36655C4.76662 6.49155 3.92495 6.84988 3.36662 7.46655C2.55828 8.36655 2.58328 9.56655 2.67495 10.3999L3.25828 15.0415C3.43328 16.6665 4.09162 18.3332 7.67495 18.3332H12.325C15.9083 18.3332 16.5666 16.6665 16.7416 15.0499L17.325 10.3915C17.4166 9.56655 17.4416 8.36655 16.6333 7.46655ZM9.71662 2.84155C10.55 2.76655 11.3416 3.02488 11.9583 3.58321C12.5666 4.13321 12.9083 4.91655 12.9083 5.73321V6.31655H7.09162V5.88321C7.09162 4.39988 8.31662 2.97488 9.71662 2.84155ZM9.99995 15.4832C8.25828 15.4832 6.84162 14.0665 6.84162 12.3249C6.84162 10.5832 8.25828 9.16655 9.99995 9.16655C11.7416 9.16655 13.1583 10.5832 13.1583 12.3249C13.1583 14.0665 11.7416 15.4832 9.99995 15.4832Z" fill="#888AA0"/>
<path id="Vector_2" d="M9.52507 13.8667C9.36673 13.8667 9.2084 13.8083 9.0834 13.6833L8.2584 12.8583C8.01673 12.6167 8.01673 12.2167 8.2584 11.975C8.50007 11.7333 8.90007 11.7333 9.14173 11.975L9.54173 12.375L10.8751 11.1417C11.1251 10.9083 11.5251 10.925 11.7584 11.175C11.9917 11.425 11.9751 11.825 11.7251 12.0583L9.95006 13.7C9.82506 13.8083 9.67507 13.8667 9.52507 13.8667Z" fill="#888AA0"/>
</g>
</g>
</g>
</svg>
