<svg width="20" height="20" viewBox="0 0 20 20" fill="none" xmlns="http://www.w3.org/2000/svg">
<g id="vuesax/bold/building-4">
<g id="vuesax/bold/building-4_2">
<g id="building-4">
<path id="Vector" d="M9.43333 2.5H4.24167C2.58333 2.5 1.75 3.34167 1.75 5.01667V18.3333H6.25V15.2083C6.25 14.8667 6.53333 14.5833 6.875 14.5833C7.21667 14.5833 7.5 14.8583 7.5 15.2083V18.3333H11.9167V5.01667C11.9167 3.34167 11.0917 2.5 9.43333 2.5ZM8.95833 10.625H4.83333C4.49167 10.625 4.20833 10.3417 4.20833 10C4.20833 9.65833 4.49167 9.375 4.83333 9.375H8.95833C9.3 9.375 9.58333 9.65833 9.58333 10C9.58333 10.3417 9.3 10.625 8.95833 10.625ZM8.95833 7.5H4.83333C4.49167 7.5 4.20833 7.21667 4.20833 6.875C4.20833 6.53333 4.49167 6.25 4.83333 6.25H8.95833C9.3 6.25 9.58333 6.53333 9.58333 6.875C9.58333 7.21667 9.3 7.5 8.95833 7.5Z" fill="#888AA0"/>
<path id="Vector_2" d="M19.1668 17.7083H17.2752V15.2083C18.0668 14.95 18.6418 14.2083 18.6418 13.3333V11.6667C18.6418 10.575 17.7502 9.68333 16.6585 9.68333C15.5668 9.68333 14.6752 10.575 14.6752 11.6667V13.3333C14.6752 14.2 15.2418 14.9333 16.0168 15.2V17.7083H0.833496C0.491829 17.7083 0.208496 17.9917 0.208496 18.3333C0.208496 18.675 0.491829 18.9583 0.833496 18.9583H16.6085C16.6252 18.9583 16.6335 18.9667 16.6502 18.9667C16.6668 18.9667 16.6752 18.9583 16.6918 18.9583H19.1668C19.5085 18.9583 19.7918 18.675 19.7918 18.3333C19.7918 17.9917 19.5085 17.7083 19.1668 17.7083Z" fill="#888AA0"/>
</g>
</g>
</g>
</svg>
