<svg width="32" height="32" viewBox="0 0 32 32" fill="none" xmlns="http://www.w3.org/2000/svg">
<g id="vuesax/bold/building">
<g id="vuesax/bold/building_2">
<g id="building">
<path id="Vector" d="M14.3334 6.18648L8.42671 3.26648C5.24004 1.70648 2.62671 3.29315 2.62671 6.78648V26.5731C2.62671 28.0931 3.89338 29.3331 5.44004 29.3331H15.3334C16.0667 29.3331 16.6667 28.7331 16.6667 27.9998V9.87981C16.6667 8.47981 15.6134 6.81315 14.3334 6.18648ZM11.96 18.3331H7.33338C6.78671 18.3331 6.33338 17.8798 6.33338 17.3331C6.33338 16.7865 6.78671 16.3331 7.33338 16.3331H11.96C12.5067 16.3331 12.96 16.7865 12.96 17.3331C12.96 17.8798 12.52 18.3331 11.96 18.3331ZM11.96 12.9998H7.33338C6.78671 12.9998 6.33338 12.5465 6.33338 11.9998C6.33338 11.4531 6.78671 10.9998 7.33338 10.9998H11.96C12.5067 10.9998 12.96 11.4531 12.96 11.9998C12.96 12.5465 12.52 12.9998 11.96 12.9998Z" fill="#7A63EC"/>
<path id="Vector_2" d="M29.3334 24.0532V25.9999C29.3334 27.8399 27.8401 29.3332 26.0001 29.3332H19.9601C19.2401 29.3332 18.6667 28.7599 18.6667 28.0399V25.1599C20.0934 25.3332 21.6001 24.9199 22.6801 24.0532C23.5867 24.7866 24.7467 25.2266 26.0134 25.2266C27.2534 25.2266 28.4134 24.7866 29.3334 24.0532Z" fill="#7A63EC"/>
<path id="Vector_3" d="M29.3334 20.0665V20.0799C29.2267 21.8265 27.8001 23.2265 26.0134 23.2265C24.1601 23.2265 22.6801 21.7199 22.6801 19.8932C22.6801 21.9332 20.8001 23.5732 18.6667 23.1599V15.9999C18.6667 15.1465 19.4534 14.5065 20.2934 14.6932L22.6801 15.2265L23.3201 15.3732L26.0401 15.9865C26.6934 16.1199 27.2934 16.3465 27.8134 16.6799C27.8134 16.6932 27.8267 16.6932 27.8267 16.6932C27.9601 16.7865 28.0934 16.8932 28.2134 17.0132C28.8267 17.6265 29.2267 18.5199 29.3201 19.8265C29.3201 19.9065 29.3334 19.9865 29.3334 20.0665Z" fill="#7A63EC"/>
</g>
</g>
</g>
</svg>
