<svg width="32" height="32" viewBox="0 0 32 32" fill="none" xmlns="http://www.w3.org/2000/svg">
<g id="vuesax/bold/buildings">
<g id="vuesax/bold/buildings_2">
<g id="buildings">
<path id="Vector" d="M6.66675 10.6665C4.45341 10.6665 2.66675 12.4532 2.66675 14.6665V25.3332C2.66675 27.5465 4.45341 29.3332 6.66675 29.3332H8.66675C10.1334 29.3332 11.3334 28.1332 11.3334 26.6665V13.3332C11.3334 11.8665 10.1334 10.6665 8.66675 10.6665H6.66675ZM8.00008 22.6665C8.00008 23.2132 7.54675 23.6665 7.00008 23.6665C6.45341 23.6665 6.00008 23.2132 6.00008 22.6665V17.3332C6.00008 16.7865 6.45341 16.3332 7.00008 16.3332C7.54675 16.3332 8.00008 16.7865 8.00008 17.3332V22.6665Z" fill="#7A63EC"/>
<path id="Vector_2" d="M25.3333 2.6665H17.3333C15.1199 2.6665 13.3333 4.45317 13.3333 6.6665V25.3332C13.3333 27.5465 15.1199 29.3332 17.3333 29.3332H17.9999C18.3733 29.3332 18.6666 29.0398 18.6666 28.6665V23.9998C18.6666 23.2665 19.2666 22.6665 19.9999 22.6665H22.6666C23.3999 22.6665 23.9999 23.2665 23.9999 23.9998V28.6665C23.9999 29.0398 24.2933 29.3332 24.6666 29.3332H25.3333C27.5466 29.3332 29.3333 27.5465 29.3333 25.3332V6.6665C29.3333 4.45317 27.5466 2.6665 25.3333 2.6665ZM19.6666 17.3332C19.6666 17.8798 19.2133 18.3332 18.6666 18.3332C18.1199 18.3332 17.6666 17.8798 17.6666 17.3332V10.6665C17.6666 10.1198 18.1199 9.6665 18.6666 9.6665C19.2133 9.6665 19.6666 10.1198 19.6666 10.6665V17.3332ZM24.9999 17.3332C24.9999 17.8798 24.5466 18.3332 23.9999 18.3332C23.4533 18.3332 22.9999 17.8798 22.9999 17.3332V10.6665C22.9999 10.1198 23.4533 9.6665 23.9999 9.6665C24.5466 9.6665 24.9999 10.1198 24.9999 10.6665V17.3332Z" fill="#7A63EC"/>
</g>
</g>
</g>
</svg>
