<svg width="20" height="20" viewBox="0 0 20 20" fill="none" xmlns="http://www.w3.org/2000/svg">
<path d="M15.62 8.7501C15.19 8.7501 14.85 8.4001 14.85 7.9801C14.85 7.6101 14.48 6.8401 13.86 6.1701C13.25 5.5201 12.58 5.1401 12.02 5.1401C11.59 5.1401 11.25 4.7901 11.25 4.3701C11.25 3.9501 11.6 3.6001 12.02 3.6001C13.02 3.6001 14.07 4.1401 14.99 5.1101C15.85 6.0201 16.4 7.1501 16.4 7.9701C16.4 8.4001 16.05 8.7501 15.62 8.7501Z" fill="url(#paint0_linear_1_19236)"/>
<path d="M19.2298 8.75C18.7998 8.75 18.4598 8.4 18.4598 7.98C18.4598 4.43 15.5698 1.55 12.0298 1.55C11.5998 1.55 11.2598 1.2 11.2598 0.78C11.2598 0.36 11.5998 0 12.0198 0C16.4198 0 19.9998 3.58 19.9998 7.98C19.9998 8.4 19.6498 8.75 19.2298 8.75Z" fill="url(#paint1_linear_1_19236)"/>
<path opacity="0.4" d="M8.73 11.22C9.29106 11.7655 9.31755 12.6824 8.76423 13.2358L7.54059 14.4594C6.96749 15.0325 6.0431 15.0631 5.47 14.49C4.44 13.45 3.51 12.36 2.68 11.22C1.86 10.08 1.2 8.94 0.72 7.81C0.24 6.67 0 5.58 0 4.54C0 3.86 0.12 3.21 0.36 2.61C0.6 2 0.98 1.44 1.51 0.94C2.15 0.31 2.85 0 3.59 0C3.87 0 4.15 0.0600001 4.4 0.18C4.66 0.3 4.89 0.48 5.07 0.74L7.39 4.01C7.57 4.26 7.7 4.49 7.79 4.71C7.88 4.92 7.93 5.13 7.93 5.32C7.93 5.56 7.86 5.8 7.72 6.03C7.59 6.26 7.4 6.5 7.16 6.74L6.4 7.53C6.29 7.64 6.24 7.77 6.24 7.93C6.24 8.01 6.25 8.08 6.27 8.16C6.32033 8.29422 6.38314 8.42406 6.45863 8.54592C6.64463 8.84613 6.91842 9.21268 7.28 9.64C7.73 10.16 8.21 10.69 8.73 11.22Z" fill="url(#paint2_linear_1_19236)"/>
<path d="M19.9696 16.33C19.9696 16.61 19.9196 16.9 19.8196 17.18C19.7896 17.26 19.7596 17.34 19.7196 17.42C19.5496 17.78 19.3296 18.12 19.0396 18.44C18.5536 18.9757 18.0184 19.3637 17.4144 19.6139C17.4046 19.618 17.394 19.6203 17.3846 19.6251C17.3752 19.6298 17.3646 19.6321 17.3549 19.636C16.769 19.8722 16.1339 20 15.4496 20C14.4296 20 13.3396 19.76 12.1896 19.27C11.0396 18.78 9.88961 18.12 8.74961 17.29C8.12234 16.8236 8.07528 15.9244 8.62801 15.3716L10.2453 13.7544C10.6035 13.3961 11.1608 13.375 11.6096 13.61C11.6596 13.63 11.7196 13.66 11.7896 13.69C11.8696 13.72 11.9496 13.73 12.0396 13.73C12.2096 13.73 12.3396 13.67 12.4496 13.56L13.2096 12.81C13.4596 12.56 13.6996 12.37 13.9296 12.25C14.1596 12.11 14.3896 12.04 14.6396 12.04C14.8296 12.04 15.0296 12.08 15.2496 12.17C15.4696 12.26 15.6996 12.39 15.9496 12.56L19.2596 14.91C19.5196 15.09 19.6996 15.3 19.8096 15.55C19.9096 15.8 19.9696 16.05 19.9696 16.33Z" fill="url(#paint3_linear_1_19236)"/>
<defs>
<linearGradient id="paint0_linear_1_19236" x1="10.9831" y1="0.858968" x2="21.1608" y2="3.40535" gradientUnits="userSpaceOnUse">
<stop stop-color="#7A63EC"/>
<stop offset="1" stop-color="#7A63EC" stop-opacity="0"/>
</linearGradient>
<linearGradient id="paint1_linear_1_19236" x1="10.8068" y1="-4.65726" x2="28.0816" y2="-0.340186" gradientUnits="userSpaceOnUse">
<stop stop-color="#7A63EC"/>
<stop offset="1" stop-color="#7A63EC" stop-opacity="0"/>
</linearGradient>
<linearGradient id="paint2_linear_1_19236" x1="-0.507408" y1="-8.23936" x2="19.5491" y2="-5.06585" gradientUnits="userSpaceOnUse">
<stop stop-color="#7A63EC"/>
<stop offset="1" stop-color="#7A63EC" stop-opacity="0"/>
</linearGradient>
<linearGradient id="paint3_linear_1_19236" x1="6.95848" y1="7.80326" x2="29.5239" y2="16.5767" gradientUnits="userSpaceOnUse">
<stop stop-color="#7A63EC"/>
<stop offset="1" stop-color="#7A63EC" stop-opacity="0"/>
</linearGradient>
</defs>
</svg>
