<svg width="20" height="20" viewBox="0 0 20 20" fill="none" xmlns="http://www.w3.org/2000/svg">
<g id="vuesax/bold/camera">
<g id="vuesax/bold/camera_2">
<g id="camera">
<path id="Vector" d="M14.9998 5.00001C14.4915 5.00001 14.0248 4.70834 13.7915 4.25834L13.1915 3.05001C12.8081 2.29167 11.8081 1.66667 10.9581 1.66667H9.04981C8.19148 1.66667 7.19148 2.29167 6.80815 3.05001L6.20815 4.25834C5.97481 4.70834 5.50815 5.00001 4.99981 5.00001C3.19148 5.00001 1.75815 6.525 1.87481 8.32501L2.30815 15.2083C2.40815 16.925 3.33315 18.3333 5.63315 18.3333H14.3665C16.6665 18.3333 17.5831 16.925 17.6915 15.2083L18.1248 8.32501C18.2415 6.525 16.8081 5.00001 14.9998 5.00001ZM8.74981 6.04167H11.2498C11.5915 6.04167 11.8748 6.32501 11.8748 6.66667C11.8748 7.00834 11.5915 7.29167 11.2498 7.29167H8.74981C8.40815 7.29167 8.12481 7.00834 8.12481 6.66667C8.12481 6.32501 8.40815 6.04167 8.74981 6.04167ZM9.99981 15.1C8.44981 15.1 7.18315 13.8417 7.18315 12.2833C7.18315 10.725 8.44148 9.46667 9.99981 9.46667C11.5581 9.46667 12.8165 10.725 12.8165 12.2833C12.8165 13.8417 11.5498 15.1 9.99981 15.1Z" fill="#888AA0"/>
</g>
</g>
</g>
</svg>
