<svg width="20" height="20" viewBox="0 0 20 20" fill="none" xmlns="http://www.w3.org/2000/svg">
<g id="vuesax/bold/shopping-cart">
<g id="vuesax/bold/shopping-cart_2">
<g id="shopping-cart">
<path id="Vector" d="M13.5418 18.75C14.3472 18.75 15.0002 18.0971 15.0002 17.2917C15.0002 16.4863 14.3472 15.8334 13.5418 15.8334C12.7364 15.8334 12.0835 16.4863 12.0835 17.2917C12.0835 18.0971 12.7364 18.75 13.5418 18.75Z" fill="#888AA0"/>
<path id="Vector_2" d="M6.87484 18.75C7.68025 18.75 8.33317 18.0971 8.33317 17.2917C8.33317 16.4863 7.68025 15.8334 6.87484 15.8334C6.06942 15.8334 5.4165 16.4863 5.4165 17.2917C5.4165 18.0971 6.06942 18.75 6.87484 18.75Z" fill="#888AA0"/>
<path id="Vector_3" d="M4.03317 3.28331L3.8665 5.32498C3.83317 5.71664 4.1415 6.04164 4.53317 6.04164H17.2915C17.6415 6.04164 17.9332 5.77498 17.9582 5.42498C18.0665 3.94998 16.9415 2.74997 15.4665 2.74997H5.22484C5.1415 2.38331 4.97484 2.03331 4.7165 1.74164C4.29984 1.29997 3.7165 1.04164 3.1165 1.04164H1.6665C1.32484 1.04164 1.0415 1.32497 1.0415 1.66664C1.0415 2.00831 1.32484 2.29164 1.6665 2.29164H3.1165C3.37484 2.29164 3.6165 2.39997 3.7915 2.58331C3.9665 2.77497 4.04984 3.02497 4.03317 3.28331Z" fill="#888AA0"/>
<path id="Vector_4" d="M17.0919 7.29164H4.30854C3.95854 7.29164 3.67521 7.55831 3.64187 7.89997L3.34187 11.525C3.22521 12.95 4.34187 14.1666 5.76687 14.1666H15.0335C16.2835 14.1666 17.3835 13.1416 17.4752 11.8916L17.7502 7.99997C17.7835 7.61664 17.4835 7.29164 17.0919 7.29164Z" fill="#888AA0"/>
</g>
</g>
</g>
</svg>
