<svg width="20" height="20" viewBox="0 0 20 20" fill="none" xmlns="http://www.w3.org/2000/svg">
<g id="Iconly/Bold/Buy">
<g id="Buy">
<path id="Buy_2" fill-rule="evenodd" clip-rule="evenodd" d="M11.7676 9.36094H14.0741C14.4238 9.36094 14.6986 9.07179 14.6986 8.72312C14.6986 8.36594 14.4238 8.0853 14.0741 8.0853H11.7676C11.4179 8.0853 11.1431 8.36594 11.1431 8.72312C11.1431 9.07179 11.4179 9.36094 11.7676 9.36094ZM16.8137 4.93958C17.3216 4.93958 17.6547 5.11817 17.9877 5.50937C18.3208 5.90056 18.3791 6.46184 18.3042 6.97125L17.5131 12.55C17.3632 13.6224 16.4639 14.4125 15.4064 14.4125H6.32183C5.21436 14.4125 4.2984 13.5459 4.20681 12.4233L3.44074 3.15284L2.18339 2.93173C1.85031 2.8722 1.61716 2.54054 1.67545 2.20037C1.73374 1.85254 2.05848 1.62208 2.39988 1.67395L4.38584 1.97926C4.66895 2.03113 4.87712 2.2684 4.9021 2.55754L5.06031 4.46249C5.08529 4.73548 5.30179 4.93958 5.56825 4.93958H16.8137ZM6.18843 15.7566C5.48898 15.7566 4.92275 16.3348 4.92275 17.0492C4.92275 17.7551 5.48898 18.3333 6.18843 18.3333C6.87956 18.3333 7.44579 17.7551 7.44579 17.0492C7.44579 16.3348 6.87956 15.7566 6.18843 15.7566ZM15.5561 15.7566C14.8567 15.7566 14.2905 16.3348 14.2905 17.0492C14.2905 17.7551 14.8567 18.3333 15.5561 18.3333C16.2473 18.3333 16.8135 17.7551 16.8135 17.0492C16.8135 16.3348 16.2473 15.7566 15.5561 15.7566Z" fill="#888AA0"/>
</g>
</g>
</svg>
