<svg width="20" height="20" viewBox="0 0 20 20" fill="none" xmlns="http://www.w3.org/2000/svg">
<g id="Icons / General / check" clip-path="url(#clip0_256_3648)">
<g id="Check">
<path id="Button Shape" d="M5.67494 16.82L0.713517 11.8572C0.485924 11.6298 0.305376 11.3597 0.182193 11.0625C0.0590091 10.7653 -0.00439453 10.4468 -0.00439453 10.125C-0.00439453 9.8033 0.0590091 9.48472 0.182193 9.18751C0.305376 8.8903 0.485924 8.62028 0.713517 8.39288C1.17314 7.93393 1.79613 7.67615 2.44566 7.67615C3.09519 7.67615 3.71817 7.93393 4.1778 8.39288L7.28494 11.4972C7.34758 11.5595 7.43232 11.5944 7.52066 11.5944C7.60899 11.5944 7.69374 11.5595 7.75637 11.4972L15.8135 3.44003C16.2731 2.98108 16.8961 2.7233 17.5457 2.7233C18.1952 2.7233 18.8182 2.98108 19.2778 3.44003C19.5054 3.66742 19.6859 3.93745 19.8091 4.23466C19.9323 4.53187 19.9957 4.85044 19.9957 5.17217C19.9957 5.4939 19.9323 5.81247 19.8091 6.10968C19.6859 6.40689 19.5054 6.67691 19.2778 6.90431L9.36351 16.82C8.87433 17.3091 8.21094 17.5838 7.51923 17.5838C6.82752 17.5838 6.16413 17.3091 5.67494 16.82Z" fill="#888AA0"/>
</g>
</g>
<defs>
<clipPath id="clip0_256_3648">
<rect width="20" height="20" fill="white"/>
</clipPath>
</defs>
</svg>
