<svg width="40" height="40" viewBox="0 0 40 40" fill="none" xmlns="http://www.w3.org/2000/svg">
<g id="devices">
<path id="Vector" d="M28.3501 21.2164C29.335 21.2164 30.1334 20.4179 30.1334 19.433C30.1334 18.4481 29.335 17.6498 28.3501 17.6498C27.3652 17.6498 26.5668 18.4481 26.5668 19.433C26.5668 20.4179 27.3652 21.2164 28.3501 21.2164Z" stroke="#3FB8AF" stroke-width="1.5" stroke-linecap="round" stroke-linejoin="round"/>
<path id="Vector_2" d="M33.3331 10V12.9833C32.9165 12.9333 32.4331 12.9 31.9165 12.9H24.7831C21.2165 12.9 20.0331 14.0834 20.0331 17.6501V26.1667H9.9998C4.66646 26.1667 3.33313 24.8334 3.33313 19.5001V10C3.33313 4.66671 4.66646 3.33337 9.9998 3.33337H26.6665C31.9998 3.33337 33.3331 4.66671 33.3331 10Z" stroke="#3FB8AF" stroke-width="1.5" stroke-linecap="round" stroke-linejoin="round"/>
<path id="Vector_3" d="M15 26.1661V33.3328" stroke="#3FB8AF" stroke-width="1.5" stroke-linecap="round" stroke-linejoin="round"/>
<path id="Vector_4" d="M3.33313 19.8331H19.9998" stroke="#3FB8AF" stroke-width="1.5" stroke-linecap="round" stroke-linejoin="round"/>
<path id="Vector_5" d="M9.91699 33.3334H20.0003" stroke="#3FB8AF" stroke-width="1.5" stroke-linecap="round" stroke-linejoin="round"/>
<g id="Group">
<path id="Vector_6" d="M28.3506 21.2161C29.3355 21.2161 30.1339 20.4177 30.1339 19.4328C30.1339 18.4479 29.3355 17.6495 28.3506 17.6495C27.3657 17.6495 26.5673 18.4479 26.5673 19.4328C26.5673 20.4177 27.3657 21.2161 28.3506 21.2161Z" stroke="#3FB8AF" stroke-width="1.5" stroke-miterlimit="10" stroke-linecap="round" stroke-linejoin="round"/>
<path id="Vector_7" d="M33.3336 12.9828C32.9169 12.9328 32.4336 12.8995 31.9169 12.8995H24.7836C21.2169 12.8995 20.0336 14.0829 20.0336 17.6496V31.9163C20.0336 35.4829 21.2169 36.6662 24.7836 36.6662H31.9169C35.4836 36.6662 36.6669 35.4829 36.6669 31.9163V17.6496C36.6669 14.5996 35.8003 13.2995 33.3336 12.9828ZM28.3503 17.6496C29.3336 17.6496 30.1336 18.4495 30.1336 19.4328C30.1336 20.4162 29.3336 21.2162 28.3503 21.2162C27.3669 21.2162 26.5669 20.4162 26.5669 19.4328C26.5669 18.4495 27.3669 17.6496 28.3503 17.6496ZM28.3503 31.9163C26.3836 31.9163 24.7836 30.3162 24.7836 28.3496C24.7836 27.5329 25.0669 26.7662 25.5336 26.1662C26.1836 25.3329 27.2003 24.7829 28.3503 24.7829C29.2503 24.7829 30.0669 25.1162 30.6836 25.6496C31.4336 26.3162 31.9169 27.2829 31.9169 28.3496C31.9169 30.3162 30.3169 31.9163 28.3503 31.9163Z" stroke="#3FB8AF" stroke-width="1.5" stroke-miterlimit="10" stroke-linecap="round" stroke-linejoin="round"/>
<path id="Vector_8" d="M31.9171 28.35C31.9171 30.3167 30.3172 31.9167 28.3505 31.9167C26.3838 31.9167 24.7838 30.3167 24.7838 28.35C24.7838 27.5333 25.0672 26.7667 25.5338 26.1667C26.1838 25.3334 27.2005 24.7833 28.3505 24.7833C29.2505 24.7833 30.0672 25.1167 30.6838 25.65C31.4338 26.3167 31.9171 27.2833 31.9171 28.35Z" stroke="#3FB8AF" stroke-width="1.5" stroke-miterlimit="10" stroke-linecap="round" stroke-linejoin="round"/>
<path id="Vector_9" d="M28.3506 21.2161C29.3355 21.2161 30.1339 20.4177 30.1339 19.4328C30.1339 18.4479 29.3355 17.6495 28.3506 17.6495C27.3657 17.6495 26.5673 18.4479 26.5673 19.4328C26.5673 20.4177 27.3657 21.2161 28.3506 21.2161Z" stroke="#3FB8AF" stroke-width="1.5" stroke-miterlimit="10" stroke-linecap="round" stroke-linejoin="round"/>
</g>
</g>
</svg>
