<svg width="32" height="32" viewBox="0 0 32 32" fill="none" xmlns="http://www.w3.org/2000/svg">
<g id="vuesax/bold/house">
<g id="vuesax/bold/house_2">
<g id="house">
<path id="Vector" d="M29.3334 28.3331H28.0001V13.3065C28.0001 12.4798 27.6267 11.7065 26.9734 11.1998L25.3334 9.9198L25.3067 6.65313C25.3067 5.9198 24.7067 5.33313 23.9734 5.33313H19.4267L17.6401 3.94646C16.6801 3.18646 15.3201 3.18646 14.3601 3.94646L5.02675 11.1998C4.37341 11.7065 4.00008 12.4798 4.00008 13.2931L3.93341 28.3331H2.66675C2.12008 28.3331 1.66675 28.7865 1.66675 29.3331C1.66675 29.8798 2.12008 30.3331 2.66675 30.3331H29.3334C29.8801 30.3331 30.3334 29.8798 30.3334 29.3331C30.3334 28.7865 29.8801 28.3331 29.3334 28.3331ZM8.66675 16.9998V14.9998C8.66675 14.2665 9.26675 13.6665 10.0001 13.6665H12.6667C13.4001 13.6665 14.0001 14.2665 14.0001 14.9998V16.9998C14.0001 17.7331 13.4001 18.3331 12.6667 18.3331H10.0001C9.26675 18.3331 8.66675 17.7331 8.66675 16.9998ZM19.3334 28.3331H12.6667V24.6665C12.6667 23.5598 13.5601 22.6665 14.6667 22.6665H17.3334C18.4401 22.6665 19.3334 23.5598 19.3334 24.6665V28.3331ZM23.3334 16.9998C23.3334 17.7331 22.7334 18.3331 22.0001 18.3331H19.3334C18.6001 18.3331 18.0001 17.7331 18.0001 16.9998V14.9998C18.0001 14.2665 18.6001 13.6665 19.3334 13.6665H22.0001C22.7334 13.6665 23.3334 14.2665 23.3334 14.9998V16.9998Z" fill="#7A63EC"/>
</g>
</g>
</g>
</svg>
