<svg width="20" height="20" viewBox="0 0 20 20" fill="none" xmlns="http://www.w3.org/2000/svg">
<path opacity="0.4" d="M8.74988 0.449824C9.44988 -0.140176 10.5799 -0.140176 11.2599 0.449824L12.8399 1.79982C13.1399 2.04982 13.7099 2.25982 14.1099 2.25982H15.8099C16.8699 2.25982 17.7399 3.12982 17.7399 4.18982V5.88982C17.7399 6.28982 17.9499 6.84982 18.1999 7.14982L19.5499 8.72982C20.1399 9.42982 20.1399 10.5598 19.5499 11.2398L18.1999 12.8198C17.9499 13.1198 17.7399 13.6798 17.7399 14.0798V15.7798C17.7399 16.8398 16.8699 17.7098 15.8099 17.7098H14.1099C13.7099 17.7098 13.1499 17.9198 12.8499 18.1698L11.2699 19.5198C10.5699 20.1098 9.43988 20.1098 8.75988 19.5198L7.17988 18.1698C6.87988 17.9198 6.30988 17.7098 5.91988 17.7098H4.16988C3.10988 17.7098 2.23988 16.8398 2.23988 15.7798V14.0698C2.23988 13.6798 2.03988 13.1098 1.78988 12.8198L0.439883 11.2298C-0.140117 10.5398 -0.140117 9.41982 0.439883 8.72982L1.78988 7.13982C2.03988 6.83982 2.23988 6.27982 2.23988 5.88982V4.19982C2.23988 3.13982 3.10988 2.26982 4.16988 2.26982H5.89988C6.29988 2.26982 6.85988 2.05982 7.15988 1.80982L8.74988 0.449824Z" fill="url(#paint0_linear_1_2004)"/>
<path d="M10 14.8696C9.45 14.8696 9 14.4196 9 13.8696C9 13.3196 9.44 12.8696 10 12.8696C10.55 12.8696 11 13.3196 11 13.8696C11 14.4196 10.56 14.8696 10 14.8696Z" fill="url(#paint1_linear_1_2004)"/>
<path d="M10 11.7199C9.59 11.7199 9.25 11.3799 9.25 10.9699V6.12988C9.25 5.71988 9.59 5.37988 10 5.37988C10.41 5.37988 10.75 5.71988 10.75 6.12988V10.9599C10.75 11.3799 10.42 11.7199 10 11.7199Z" fill="url(#paint2_linear_1_2004)"/>
<defs>
<linearGradient id="paint0_linear_1_2004" x1="-1.03105" y1="-10.6139" x2="38.4619" y2="-0.717015" gradientUnits="userSpaceOnUse">
<stop stop-color="#7A63EC"/>
<stop offset="1" stop-color="#7A63EC" stop-opacity="0"/>
</linearGradient>
<linearGradient id="paint1_linear_1_2004" x1="8.89634" y1="11.8051" x2="12.8489" y2="12.794" gradientUnits="userSpaceOnUse">
<stop stop-color="#7A63EC"/>
<stop offset="1" stop-color="#7A63EC" stop-opacity="0"/>
</linearGradient>
<linearGradient id="paint2_linear_1_2004" x1="9.17226" y1="2.00537" x2="12.3112" y2="2.19117" gradientUnits="userSpaceOnUse">
<stop stop-color="#7A63EC"/>
<stop offset="1" stop-color="#7A63EC" stop-opacity="0"/>
</linearGradient>
</defs>
</svg>
