<svg width="24" height="24" viewBox="0 0 24 24" fill="none" xmlns="http://www.w3.org/2000/svg">
<path opacity="0.4" d="M17.1184 18.1788C18.5714 19.6319 18.2445 22.0001 16.1896 22.0001H7.8096C7.51888 22.0001 7.39723 21.6624 7.6028 21.4569L11.723 17.3366C12.9803 16.0793 15.0189 16.0793 16.2762 17.3366L17.1184 18.1788Z" fill="url(#paint0_linear_1_1990)"/>
<path opacity="0.4" d="M21.9996 7.8101V16.1901C21.9996 18.245 19.6314 18.5719 18.1784 17.1189L17.3361 16.2767C16.0788 15.0194 16.0788 12.9808 17.3361 11.7235L21.4564 7.60329C21.6619 7.39772 21.9996 7.51938 21.9996 7.8101Z" fill="url(#paint1_linear_1_1990)"/>
<path opacity="0.4" d="M18.2669 10.7931C16.4958 12.5642 16.4958 15.4358 18.2669 17.2069L20.407 19.347C20.7158 19.6558 20.7675 20.15 20.4588 20.4587C20.15 20.7675 19.6558 20.7158 19.347 20.407L17.2069 18.2669C15.4358 16.4958 12.5642 16.4958 10.7931 18.2669L8.36955 20.6905C7.56238 21.4976 6.41801 21.993 5.35001 21.59C3.21001 20.81 2 18.91 2 16.19V7.81C2 4.17 4.17 2 7.81 2H16.19C18.91 2 20.81 3.21 21.59 5.35C21.993 6.418 21.4976 7.56237 20.6905 8.36954L18.2669 10.7931Z" fill="url(#paint2_linear_1_1990)"/>
<path d="M18.2665 10.7932C16.4954 12.5643 16.4954 15.4359 18.2665 17.207L20.4066 19.3471C20.7154 19.6559 20.7671 20.1501 20.4584 20.4588C20.1496 20.7676 19.6554 20.7159 19.3466 20.4071L17.2065 18.267C15.4354 16.4959 12.5638 16.4959 10.7927 18.267L7.38596 21.6737C7.2039 21.8558 6.95192 21.9545 6.69648 21.9222C6.41014 21.886 6.13635 21.8313 5.8741 21.7599C5.62461 21.6921 5.55677 21.3829 5.73959 21.2001L20.6064 6.33329C21.0673 5.87237 21.8352 6.02966 21.919 6.67609C21.9521 6.93141 21.8553 7.20439 21.6733 7.38644L18.2665 10.7932Z" fill="url(#paint3_linear_1_1990)"/>
<path d="M12.2398 7.92979C11.8598 6.27979 10.3998 5.53979 9.11981 5.52979C7.83981 5.52979 6.37981 6.26978 5.99981 7.91978C5.57981 9.74978 6.6998 11.2798 7.7098 12.2398C8.1098 12.6198 8.60981 12.7998 9.11981 12.7998C9.62981 12.7998 10.1298 12.6098 10.5298 12.2398C11.5398 11.2798 12.6598 9.74979 12.2398 7.92979ZM9.14981 9.48978C8.59981 9.48978 8.14981 9.03978 8.14981 8.48978C8.14981 7.93978 8.58981 7.48978 9.14981 7.48978H9.15982C9.70982 7.48978 10.1598 7.93978 10.1598 8.48978C10.1598 9.03978 9.69981 9.48978 9.14981 9.48978Z" fill="url(#paint4_linear_1_1990)"/>
<defs>
<linearGradient id="paint0_linear_1_1990" x1="6.43723" y1="11.3662" x2="28.5755" y2="21.5659" gradientUnits="userSpaceOnUse">
<stop stop-color="#7A63EC"/>
<stop offset="1" stop-color="#7A63EC" stop-opacity="0"/>
</linearGradient>
<linearGradient id="paint1_linear_1_1990" x1="14.6999" y1="0.297839" x2="29.0095" y2="2.24199" gradientUnits="userSpaceOnUse">
<stop stop-color="#7A63EC"/>
<stop offset="1" stop-color="#7A63EC" stop-opacity="0"/>
</linearGradient>
<linearGradient id="paint2_linear_1_1990" x1="0.965488" y1="-8.62387" x2="40.4117" y2="1.2452" gradientUnits="userSpaceOnUse">
<stop stop-color="#7A63EC"/>
<stop offset="1" stop-color="#7A63EC" stop-opacity="0"/>
</linearGradient>
<linearGradient id="paint3_linear_1_1990" x1="4.48873" y1="-3.49071" x2="37.3144" y2="4.72197" gradientUnits="userSpaceOnUse">
<stop stop-color="#7A63EC"/>
<stop offset="1" stop-color="#7A63EC" stop-opacity="0"/>
</linearGradient>
<linearGradient id="paint4_linear_1_1990" x1="5.57637" y1="1.66027" x2="18.433" y2="4.50134" gradientUnits="userSpaceOnUse">
<stop stop-color="#7A63EC"/>
<stop offset="1" stop-color="#7A63EC" stop-opacity="0"/>
</linearGradient>
</defs>
</svg>
