<?xml version="1.0" encoding="iso-8859-1"?>
<!-- Uploaded to: SVG Repo, www.svgrepo.com, Generator: SVG Repo Mixer Tools -->
<svg version="1.1" id="Layer_1" xmlns="http://www.w3.org/2000/svg" xmlns:xlink="http://www.w3.org/1999/xlink" 
	 viewBox="0 0 502.313 502.313" xml:space="preserve">
<g>
	<rect x="228.43" y="256.556" style="fill:#FF5023;" width="22.726" height="13.59"/>
	<path style="fill:#FF5023;" d="M213.671,283.106v-63.9h37.486V0l-41.49,42.574l-54.624-23.456l-22.039,55.211l-59.442-0.767
		l0.767,59.442l-55.211,22.039l23.456,54.624L0,251.156l42.574,41.49L19.118,347.27l55.211,22.039l-0.767,59.442l59.442-0.767
		l22.039,55.211l54.624-23.456l41.49,42.574V283.106H213.671z M196.931,283.106h-11.88l-29.43-36.54v36.54h-14.76v-63.9h11.52
		l29.79,37.53v-37.53h14.76V283.106z"/>
	<rect x="228.43" y="232.166" style="fill:#FF5023;" width="22.726" height="12.42"/>
	<path style="fill:#FF3501;" d="M459.738,292.646l42.574-41.49l-42.574-41.49l23.457-54.624l-55.212-22.039l0.767-59.442
		l-59.441,0.767l-22.038-55.211l-54.624,23.456L251.156,0v219.206h6.614v12.96h-6.614v12.42h2.474v11.97h-2.474v13.59h7.425v12.96
		h-7.425v219.206l41.49-42.574l54.624,23.456l22.038-55.211l59.441,0.767l-0.767-59.442l55.212-22.039L459.738,292.646z
		 M335.89,283.106h-12.33l-10.17-25.02l-10.08,25.02h-12.42l-25.47-63.9h16.021l16.109,46.98l6.3-17.19l-10.529-29.7h13.59
		l6.479,20.43l6.48-20.43h13.68l-10.71,29.7l6.48,17.19l16.02-46.98h16.11L335.89,283.106z"/>
	<polygon style="fill:#FFDA44;" points="182.172,256.736 152.382,219.206 140.862,219.206 140.862,283.106 155.621,283.106 
		155.621,246.566 185.052,283.106 196.931,283.106 196.931,219.206 182.172,219.206 	"/>
	<polygon style="fill:#FFDA44;" points="213.671,283.106 251.156,283.106 258.581,283.106 258.581,270.146 251.156,270.146 
		228.43,270.146 228.43,256.556 251.156,256.556 253.631,256.556 253.631,244.586 251.156,244.586 228.43,244.586 228.43,232.166 
		251.156,232.166 257.77,232.166 257.77,219.206 251.156,219.206 213.671,219.206 	"/>
	<polygon style="fill:#FFDA44;" points="329.321,266.186 322.841,248.996 333.551,219.296 319.871,219.296 313.39,239.726 
		306.911,219.296 293.321,219.296 303.85,248.996 297.551,266.186 281.441,219.206 265.421,219.206 290.89,283.106 303.31,283.106 
		313.39,258.086 323.56,283.106 335.89,283.106 361.451,219.206 345.341,219.206 	"/>
</g>
</svg>