<svg width="18" height="21" viewBox="0 0 18 21" fill="none" xmlns="http://www.w3.org/2000/svg">
<path d="M16.8035 7.38C15.9635 6.45 14.5835 6 12.5635 6H5.1235C3.1035 6 1.7235 6.45 0.883496 7.38C-0.0865043 8.46002 -0.0565042 9.90002 0.0534958 10.9L0.753497 16.47C0.963497 18.42 1.7535 20.42 6.0535 20.42H11.6335C15.9335 20.42 16.7235 18.42 16.9335 16.48L17.6335 10.89C17.7435 9.90002 17.7635 8.46002 16.8035 7.38ZM5.2635 11.57H5.2535C4.7035 11.57 4.2535 11.12 4.2535 10.57C4.2535 10.02 4.7035 9.57002 5.2535 9.57002C5.8135 9.57002 6.2635 10.02 6.2635 10.57C6.2635 11.12 5.8135 11.57 5.2635 11.57ZM12.2635 11.57H12.2535C11.7035 11.57 11.2535 11.12 11.2535 10.57C11.2535 10.02 11.7035 9.57002 12.2535 9.57002C12.8135 9.57002 13.2635 10.02 13.2635 10.57C13.2635 11.12 12.8135 11.57 12.2635 11.57Z" fill="url(#paint0_linear_2_21)"/>
<path d="M13.08 6.86234C12.69 6.86234 12.38 6.55234 12.38 6.16234V4.88234C12.38 3.90234 11.96 2.96234 11.24 2.30234C10.5 1.63234 9.55 1.32234 8.55 1.41234C6.87 1.57234 5.4 3.28234 5.4 5.06234V5.96234C5.4 6.35234 5.09 6.66234 4.7 6.66234C4.31 6.66234 4 6.35234 4 5.96234V5.06234C4 2.56234 6.02 0.252342 8.41 0.0223418C9.8 -0.107658 11.14 0.332341 12.17 1.27234C13.19 2.19234 13.77 3.51234 13.77 4.88234V6.16234C13.77 6.55234 13.46 6.86234 13.08 6.86234Z" fill="url(#paint1_linear_2_21)"/>
<defs>
<linearGradient id="paint0_linear_2_21" x1="-0.916604" y1="-1.67516" x2="33.0263" y2="8.74012" gradientUnits="userSpaceOnUse">
<stop stop-color="#7A63EC"/>
<stop offset="1" stop-color="#7A63EC" stop-opacity="0"/>
</linearGradient>
<linearGradient id="paint1_linear_2_21" x1="3.4936" y1="-3.65254" x2="21.7002" y2="2.83267" gradientUnits="userSpaceOnUse">
<stop stop-color="#7A63EC"/>
<stop offset="1" stop-color="#7A63EC" stop-opacity="0"/>
</linearGradient>
</defs>
</svg>
