<svg width="21" height="20" viewBox="0 0 21 20" fill="none" xmlns="http://www.w3.org/2000/svg">
<g id="Pen">
<path id="Vector" d="M18.2728 1.73456C15.9896 -0.548669 13.7534 -0.607515 11.4114 1.73456L9.98729 3.15863C9.8696 3.27632 9.82253 3.46463 9.8696 3.6294C10.7641 6.74824 13.2591 9.24331 16.378 10.1378C16.4251 10.1495 16.4721 10.1613 16.5192 10.1613C16.6487 10.1613 16.7664 10.1142 16.8605 10.0201L18.2728 8.59601C19.438 7.44263 20.0029 6.32455 20.0029 5.19471C20.0147 4.02955 19.4497 2.89971 18.2728 1.73456Z" fill="#888AA0"/>
<path id="Vector_2" d="M14.2598 11.2083C13.9185 11.0435 13.5889 10.8787 13.2712 10.6904C13.0122 10.5374 12.7651 10.3727 12.5179 10.1961C12.3179 10.0667 12.0825 9.87835 11.8589 9.69004C11.8353 9.67827 11.7529 9.60766 11.6588 9.5135C11.2704 9.18397 10.8349 8.76027 10.4466 8.28951C10.4113 8.26597 10.3524 8.18358 10.27 8.07766C10.1523 7.93643 9.95225 7.70104 9.77572 7.43035C9.63449 7.25381 9.46972 6.99489 9.31672 6.73597C9.12841 6.4182 8.96364 6.10043 8.79887 5.77089C8.75393 5.6746 8.71162 5.57918 8.67146 5.48488C8.52863 5.1495 8.09318 5.05252 7.83542 5.31027L0.995885 12.1498C0.842885 12.3028 0.701654 12.597 0.666347 12.7971L0.0308096 17.3047C-0.0868825 18.105 0.136733 18.8583 0.63104 19.3643C1.05473 19.7763 1.64319 19.9999 2.27873 19.9999C2.41996 19.9999 2.56119 19.9881 2.70242 19.9646L7.2218 19.329C7.43364 19.2937 7.72787 19.1525 7.8691 18.9995L14.7015 12.1671C14.961 11.9076 14.8628 11.463 14.5243 11.3211C14.4379 11.2849 14.35 11.2474 14.2598 11.2083Z" fill="#888AA0"/>
</g>
</svg>
