<svg width="20" height="20" viewBox="0 0 20 20" fill="none" xmlns="http://www.w3.org/2000/svg">
<g id="Icons/16pt/ic_add_16">
<g id="ic_add_16">
<rect id="bound" opacity="0.01" width="20" height="20" fill="#888AA0"/>
<path id="Fill" fill-rule="evenodd" clip-rule="evenodd" d="M10 2.5C10.6904 2.5 11.25 3.05964 11.25 3.75V8.75H16.25C16.9404 8.75 17.5 9.30964 17.5 10C17.5 10.6904 16.9404 11.25 16.25 11.25H11.25V16.25C11.25 16.9404 10.6904 17.5 10 17.5C9.30964 17.5 8.75 16.9404 8.75 16.25V11.25H3.75C3.05964 11.25 2.5 10.6904 2.5 10C2.5 9.30964 3.05964 8.75 3.75 8.75H8.75V3.75C8.75 3.05964 9.30964 2.5 10 2.5Z" fill="#888AA0"/>
</g>
</g>
</svg>
