<svg width="17" height="22" viewBox="0 0 17 22" fill="none" xmlns="http://www.w3.org/2000/svg">
<path opacity="0.4" d="M7.45826 0.171012L1.92244 2.42532C0.865601 2.86304 0 4.22 0 5.45659V14.3206C0 15.207 0.533452 16.3779 1.18768 16.9032L6.7235 21.4009C7.69982 22.1997 9.30018 22.1997 10.2765 21.4009L15.8123 16.9032C16.4665 16.367 17 15.207 17 14.3206V5.45659C17 4.23095 16.1344 2.86304 15.0776 2.43626L9.54174 0.181955C8.97809 -0.058796 8.03197 -0.0587959 7.45826 0.171012Z" fill="url(#paint0_linear_1_2024)"/>
<path d="M7.66023 17.2301C7.47023 17.2301 7.28023 17.1601 7.13023 17.0101L5.52023 15.4001C5.23023 15.1101 5.23023 14.6301 5.52023 14.3401C5.81023 14.0501 6.29023 14.0501 6.58023 14.3401C7.1767 14.9366 8.14377 14.9366 8.74023 14.3401L11.4302 11.6501C11.7202 11.3601 12.2002 11.3601 12.4902 11.6501C12.7802 11.9401 12.7802 12.4201 12.4902 12.7101L8.19023 17.0101C8.04023 17.1601 7.85023 17.2301 7.66023 17.2301Z" fill="url(#paint1_linear_1_2024)"/>
<defs>
<linearGradient id="paint0_linear_1_2024" x1="-0.881097" y1="-11.7097" x2="33.5321" y2="-5.0566" gradientUnits="userSpaceOnUse">
<stop stop-color="#7A63EC"/>
<stop offset="1" stop-color="#7A63EC" stop-opacity="0"/>
</linearGradient>
<linearGradient id="paint1_linear_1_2024" x1="4.91894" y1="8.34685" x2="19.0283" y2="12.8557" gradientUnits="userSpaceOnUse">
<stop stop-color="#7A63EC"/>
<stop offset="1" stop-color="#7A63EC" stop-opacity="0"/>
</linearGradient>
</defs>
</svg>
