<svg width="20" height="18" viewBox="0 0 20 18" fill="none" xmlns="http://www.w3.org/2000/svg">
<path opacity="0.4" d="M15 17.5H5C2 17.5 0 16 0 12.5V5.5C0 2 2 0.5 5 0.5H15C18 0.5 20 2 20 5.5V12.5C20 16 18 17.5 15 17.5Z" fill="url(#paint0_linear_1_19225)"/>
<path d="M9.99978 9.86997C9.15978 9.86997 8.30978 9.60997 7.65978 9.07997L4.52978 6.57997C4.20978 6.31997 4.14978 5.84997 4.40978 5.52997C4.66978 5.20997 5.13978 5.14997 5.45978 5.40997L8.58977 7.90997C9.34977 8.51997 10.6398 8.51997 11.3998 7.90997L14.5298 5.40997C14.8498 5.14997 15.3298 5.19997 15.5798 5.52997C15.8398 5.84997 15.7898 6.32997 15.4598 6.57997L12.3298 9.07997C11.6898 9.60997 10.8398 9.86997 9.99978 9.86997Z" fill="url(#paint1_linear_1_19225)"/>
<defs>
<linearGradient id="paint0_linear_1_19225" x1="-1.03659" y1="-8.54839" x2="37.6142" y2="2.82816" gradientUnits="userSpaceOnUse">
<stop stop-color="#7A63EC"/>
<stop offset="1" stop-color="#7A63EC" stop-opacity="0"/>
</linearGradient>
<linearGradient id="paint1_linear_1_19225" x1="3.65111" y1="2.78201" x2="21.0632" y2="13.6107" gradientUnits="userSpaceOnUse">
<stop stop-color="#7A63EC"/>
<stop offset="1" stop-color="#7A63EC" stop-opacity="0"/>
</linearGradient>
</defs>
</svg>
