<svg width="20" height="20" viewBox="0 0 20 20" fill="none" xmlns="http://www.w3.org/2000/svg">
<g id="done_round__249">
<path id="Shape" fill-rule="evenodd" clip-rule="evenodd" d="M10 0C15.5188 0 20 4.48125 20 10C20 15.5188 15.5188 20 10 20C4.48125 20 0 15.5188 0 10C0 4.48125 4.48125 0 10 0ZM13.6063 6.7775C13.7838 6.79125 13.9525 6.83375 14.1112 6.91625C14.215 6.97125 14.3113 7.04 14.3962 7.12125C14.7263 7.43625 14.8588 7.91875 14.7375 8.35875C14.685 8.54875 14.5863 8.7175 14.4575 8.86625C12.9738 10.4212 11.4538 11.94 9.9 13.4237C9.7975 13.5125 9.6875 13.5887 9.5625 13.6437C9.24375 13.785 8.8725 13.785 8.55375 13.6437C8.42875 13.5887 8.31875 13.5125 8.21625 13.4237C7.33625 12.5825 6.47375 11.7225 5.63375 10.8412C5.505 10.6925 5.40625 10.5237 5.35375 10.3325C5.3225 10.22 5.3075 10.1025 5.30875 9.985C5.31375 9.50875 5.6 9.06625 6.0325 8.86625C6.175 8.8 6.32875 8.76125 6.485 8.7525C6.64125 8.7425 6.79875 8.76375 6.9475 8.8125C7.13625 8.87375 7.29875 8.98 7.4425 9.11625L9.05875 10.7325C10.2688 9.52125 11.4525 8.2825 12.6913 7.10125C12.7363 7.0625 12.7363 7.0625 12.7812 7.02625C12.8463 6.98 12.9113 6.93875 12.9813 6.90375C13.1238 6.83375 13.2738 6.79625 13.43 6.78C13.49 6.77625 13.5475 6.775 13.6063 6.7775Z" fill="#888AA0"/>
</g>
</svg>
