<svg width="25" height="24" viewBox="0 0 25 24" fill="none" xmlns="http://www.w3.org/2000/svg">
<g id="truck-tick">
<path id="Vector" d="M15.5 2V12C15.5 13.1 14.6 14 13.5 14H2.5V7.62C3.23 8.49 4.35003 9.03 5.59003 9C6.60003 8.98 7.51 8.59 8.19 7.94C8.5 7.68 8.76002 7.34999 8.96002 6.98999C9.32002 6.37999 9.52 5.65997 9.5 4.90997C9.47 3.73997 8.95001 2.71 8.14001 2H15.5Z" stroke="#F79C39" stroke-width="1.5" stroke-linecap="round" stroke-linejoin="round"/>
<path id="Vector_2" d="M22.5 14V17C22.5 18.66 21.16 20 19.5 20H18.5C18.5 18.9 17.6 18 16.5 18C15.4 18 14.5 18.9 14.5 20H10.5C10.5 18.9 9.6 18 8.5 18C7.4 18 6.5 18.9 6.5 20H5.5C3.84 20 2.5 18.66 2.5 17V14H13.5C14.6 14 15.5 13.1 15.5 12V5H17.34C18.06 5 18.72 5.39001 19.08 6.01001L20.79 9H19.5C18.95 9 18.5 9.45 18.5 10V13C18.5 13.55 18.95 14 19.5 14H22.5Z" stroke="#F79C39" stroke-width="1.5" stroke-linecap="round" stroke-linejoin="round"/>
<path id="Vector_3" d="M8.5 22C9.60457 22 10.5 21.1046 10.5 20C10.5 18.8954 9.60457 18 8.5 18C7.39543 18 6.5 18.8954 6.5 20C6.5 21.1046 7.39543 22 8.5 22Z" stroke="#F79C39" stroke-width="1.5" stroke-linecap="round" stroke-linejoin="round"/>
<path id="Vector_4" d="M16.5 22C17.6046 22 18.5 21.1046 18.5 20C18.5 18.8954 17.6046 18 16.5 18C15.3954 18 14.5 18.8954 14.5 20C14.5 21.1046 15.3954 22 16.5 22Z" stroke="#F79C39" stroke-width="1.5" stroke-linecap="round" stroke-linejoin="round"/>
<path id="Vector_5" d="M22.5 12V14H19.5C18.95 14 18.5 13.55 18.5 13V10C18.5 9.45 18.95 9 19.5 9H20.79L22.5 12Z" stroke="#F79C39" stroke-width="1.5" stroke-linecap="round" stroke-linejoin="round"/>
<g id="Group">
<path id="Vector_6" d="M9.49993 4.90999C9.51993 5.65999 9.31995 6.38001 8.95995 6.99001C8.75995 7.35001 8.49993 7.68002 8.18993 7.94002C7.50993 8.59002 6.59995 8.98002 5.58995 9.00002C4.34995 9.03002 3.22993 8.49001 2.49993 7.62001C2.35993 7.47001 2.23993 7.30002 2.12993 7.13002C1.73993 6.54002 1.51993 5.84005 1.49993 5.09005C1.46993 3.83005 2.02992 2.68001 2.92992 1.93001C3.60992 1.37001 4.4699 1.02002 5.4099 1.00002C6.4599 0.98002 7.41994 1.36002 8.13994 2.00002C8.94994 2.71002 9.46993 3.73999 9.49993 4.90999Z" stroke="#F79C39" stroke-width="1.5" stroke-miterlimit="10" stroke-linecap="round" stroke-linejoin="round"/>
<path id="Vector_7" d="M3.93994 5.03003L4.94995 5.98999L7.03992 3.96997" stroke="#F79C39" stroke-width="1.5" stroke-linecap="round" stroke-linejoin="round"/>
</g>
</g>
</svg>
