<svg width="20" height="20" viewBox="0 0 20 20" fill="none" xmlns="http://www.w3.org/2000/svg">
<g id="vuesax/bold/wallet-2">
<g id="vuesax/bold/wallet-2_2">
<g id="wallet-2">
<path id="Vector" d="M18.3334 9.14166V10.8583C18.3334 11.3167 17.9667 11.6917 17.5 11.7083H15.8667C14.9667 11.7083 14.1417 11.05 14.0667 10.15C14.0167 9.62499 14.2167 9.13332 14.5667 8.79166C14.875 8.47499 15.3 8.29166 15.7667 8.29166H17.5C17.9667 8.30832 18.3334 8.68332 18.3334 9.14166Z" fill="#888AA0"/>
<path id="Vector_2" d="M17.0582 12.9583H15.8665C14.2832 12.9583 12.9498 11.7667 12.8165 10.25C12.7415 9.38334 13.0582 8.51667 13.6915 7.90001C14.2248 7.35001 14.9665 7.04167 15.7665 7.04167H17.0582C17.2998 7.04167 17.4998 6.84167 17.4748 6.60001C17.2915 4.57501 15.9498 3.19167 13.9582 2.95834C13.7582 2.92501 13.5498 2.91667 13.3332 2.91667H5.83317C5.59984 2.91667 5.37484 2.93334 5.15817 2.96667C3.03317 3.23334 1.6665 4.81667 1.6665 7.08334V12.9167C1.6665 15.2167 3.53317 17.0833 5.83317 17.0833H13.3332C15.6665 17.0833 17.2748 15.625 17.4748 13.4C17.4998 13.1583 17.2998 12.9583 17.0582 12.9583ZM10.8332 8.12501H5.83317C5.4915 8.12501 5.20817 7.84167 5.20817 7.50001C5.20817 7.15834 5.4915 6.87501 5.83317 6.87501H10.8332C11.1748 6.87501 11.4582 7.15834 11.4582 7.50001C11.4582 7.84167 11.1748 8.12501 10.8332 8.12501Z" fill="#888AA0"/>
</g>
</g>
</g>
</svg>
