<svg width="15" height="16" viewBox="0 0 15 16" fill="none" xmlns="http://www.w3.org/2000/svg">
<path id="Heart" fill-rule="evenodd" clip-rule="evenodd" d="M10.3873 0.875486C10.8606 0.875486 11.3331 0.942236 11.7823 1.09299C14.5506 1.99299 15.5481 5.03049 14.7148 7.68549C14.2423 9.04224 13.4698 10.2805 12.4581 11.2922C11.0098 12.6947 9.42058 13.9397 7.70983 15.0122L7.52233 15.1255L7.32733 15.0047C5.61058 13.9397 4.01233 12.6947 2.55058 11.2847C1.54558 10.273 0.772329 9.04224 0.292329 7.68549C-0.555171 5.03049 0.442329 1.99299 3.24058 1.07724C3.45808 1.00224 3.68233 0.949736 3.90733 0.920486H3.99733C4.20808 0.889736 4.41733 0.875486 4.62733 0.875486H4.70983C5.18233 0.889736 5.63983 0.972236 6.08308 1.12299H6.12733C6.15733 1.13724 6.17983 1.15299 6.19483 1.16724C6.36058 1.22049 6.51733 1.28049 6.66733 1.36299L6.95233 1.49049C7.0212 1.52722 7.0985 1.58334 7.1653 1.63184C7.20763 1.66257 7.24574 1.69024 7.27483 1.70799C7.28707 1.71521 7.29951 1.72247 7.31205 1.72979C7.37636 1.76733 7.44334 1.80643 7.49983 1.84974C8.33308 1.21299 9.34483 0.867986 10.3873 0.875486ZM12.3823 6.27549C12.6898 6.26724 12.9523 6.02049 12.9748 5.70474V5.61549C12.9973 4.56474 12.3606 3.61299 11.3923 3.24549C11.0848 3.13974 10.7473 3.30549 10.6348 3.62049C10.5298 3.93549 10.6948 4.28049 11.0098 4.39224C11.4906 4.57224 11.8123 5.04549 11.8123 5.56974V5.59299C11.7981 5.76474 11.8498 5.93049 11.9548 6.05799C12.0598 6.18549 12.2173 6.25974 12.3823 6.27549Z" fill="white"/>
</svg>
